<?xml version="1.0" encoding="UTF-8" standalone="no"?>
<!-- Created with Inkscape (http://www.inkscape.org/) -->

<svg
   width="10000"
   height="10000"
   viewBox="0 0 2645.8333 2645.8333"
   version="1.1"
   id="svg1"
   inkscape:version="1.4.2 (ebf0e940d0, 2025-05-08)"
   sodipodi:docname="empty.svg"
   xmlns:inkscape="http://www.inkscape.org/namespaces/inkscape"
   xmlns:sodipodi="http://sodipodi.sourceforge.net/DTD/sodipodi-0.dtd"
   xmlns="http://www.w3.org/2000/svg"
   xmlns:svg="http://www.w3.org/2000/svg">
  <sodipodi:namedview
     id="namedview1"
     pagecolor="#505050"
     bordercolor="#ffffff"
     borderopacity="1"
     inkscape:showpageshadow="0"
     inkscape:pageopacity="0"
     inkscape:pagecheckerboard="1"
     inkscape:deskcolor="#505050"
     inkscape:document-units="mm"
     inkscape:zoom="0.11313708"
     inkscape:cx="4132.1553"
     inkscape:cy="4543.1611"
     inkscape:window-width="2476"
     inkscape:window-height="1432"
     inkscape:window-x="0"
     inkscape:window-y="0"
     inkscape:window-maximized="1"
     inkscape:current-layer="layer1" />
  <defs
     id="defs1" />
  <g
     inkscape:label="Layer 1"
     inkscape:groupmode="layer"
     id="layer1">
    <path
       style="fill:#1a1a1a;stroke-width:2.98189"
       id="path25"
       d="m 178.71949,530.3851 c -0.63882,8.14152 -2.34812,16.14765 -3.81732,24.17111 -2.52174,12.57814 -4.50208,25.23984 -6.16044,37.95279 -1.63394,13.53865 -3.25077,27.07757 -4.52249,40.65435 -1.28031,13.72664 -2.17893,27.48284 -2.94642,41.24504 -0.67229,12.13446 -1.05794,24.27987 -1.85074,36.40738 -0.86692,11.14706 -1.41619,22.3132 -2.10765,33.47089 -0.6738,11.80237 -1.75796,23.57172 -3.10432,35.31646 -1.60554,14.17436 -3.22989,28.34288 -4.51347,42.54955 -1.29221,14.21348 -3.18741,28.3628 -4.9825,42.52044 -1.51715,11.70047 -3.48288,23.33424 -5.32218,34.98727 -1.57215,10.45173 -3.21388,20.8973 -5.02494,31.31198 -1.71808,8.46566 -2.95384,17.01685 -4.54129,25.50415 -0.91502,4.59987 -0.4526,2.2731 -1.38694,6.98088 0,0 64.53855,15.81779 64.53855,15.81779 v 0 c 0.86768,-4.80821 0.41717,-2.33782 1.35402,-7.41107 1.5265,-8.66127 2.51083,-17.40889 4.15166,-26.05447 1.8009,-10.69067 3.22847,-21.44437 4.88967,-32.15641 1.82438,-12.23498 3.71934,-24.45656 5.13303,-36.74692 1.55395,-14.56961 3.50159,-29.0948 4.89977,-43.68085 1.302,-13.79443 3.01824,-27.53538 4.78163,-41.27859 1.5205,-12.44682 3.03544,-24.89424 3.87255,-37.40839 0.88715,-11.2467 1.22306,-22.52736 2.0434,-33.77971 0.79399,-12.35013 1.14756,-24.71083 1.60966,-37.07627 0.6136,-13.11765 1.31631,-26.23426 2.47483,-39.31819 1.2336,-13.05161 2.81003,-26.05999 4.40811,-39.07195 1.47109,-11.67392 3.25242,-23.31557 5.97761,-34.77955 1.72941,-8.13085 3.59395,-16.23576 5.66276,-24.28984 z" />
    <path
       style="fill:#1a1a1a;stroke-width:2.98189"
       id="path26"
       d="m 212.10269,617.04687 c 13.50624,-3.2417 27.60889,-3.81212 41.43932,-4.78086 27.48693,-1.74802 55.02599,-2.43279 82.55914,-3.00122 26.84125,-0.45592 53.6862,-0.55238 80.53068,-0.47009 3.48717,0.10387 6.97431,0.20741 10.46145,0.31135 0,0 -18.69255,-59.40945 -18.69255,-59.40945 v 0 c -3.64494,0.0996 -7.28991,0.19984 -10.93489,0.3 -26.79047,0.77706 -53.58454,1.41027 -80.3804,1.97995 -28.17354,0.5434 -56.34953,1.00814 -84.51741,1.79607 -15.86169,0.53244 -31.70881,1.22655 -47.5115,2.65795 z" />
    <path
       style="fill:#1a1a1a;stroke-width:2.98189"
       id="path27"
       d="m 209.92564,791.46357 c 14.8353,0.14834 29.69693,0.4422 44.52888,1.02718 25.91551,0.82866 51.76115,2.88822 77.59998,4.92406 19.09554,1.72725 38.30212,2.6949 57.24865,5.71672 0,0 -15.2958,-62.4789 -15.2958,-62.4789 v 0 c -19.05576,-0.2896 -38.08555,-1.39378 -57.10351,-2.55943 -26.05299,-1.71748 -52.1015,-3.53188 -78.11763,-5.72954 -13.34798,-1.22924 -27.36425,-1.94225 -40.09272,-6.29206 z" />
    <path
       style="fill:#1a1a1a;stroke-width:2.98189"
       id="path28"
       d="m 102.55942,951.50048 c 17.50229,12.80135 33.47216,14.50243 52.8755,17.55855 17.49581,2.08734 35.09674,3.0548 52.67352,4.20661 27.96505,1.87663 55.95293,3.39799 83.92365,5.18542 27.15666,1.83893 54.31101,3.71131 81.46446,5.5955 14.25949,0.97436 7.2617,0.50173 20.99329,1.41676 0,0 -16.4684,-60.35878 -16.4684,-60.35878 v 0 c -13.49144,-0.47243 -6.61459,-0.22488 -20.63031,-0.74457 -26.85359,-1.06374 -53.69834,-2.3588 -80.50842,-4.22314 -27.77854,-1.94429 -55.55348,-3.96369 -83.2164,-7.18574 -16.04618,-1.90988 -32.20569,-3.74541 -47.85015,-7.87823 -3.66757,-0.96993 -7.32062,-1.81787 -10.5933,-3.79824 -0.63157,-0.38079 -2.46502,-1.59222 -1.78073,-1.31121 24.72883,10.15956 30.917,10.42507 21.66359,9.84785 z" />
    <path
       style="fill:#1a1a1a;stroke-width:2.98189"
       id="path29"
       d="m 497.06504,789.11657 c 0.78812,10.67453 1.39856,21.36568 2.10099,32.04841 1.2395,16.14634 2.02048,32.32083 2.69078,48.49814 0.57704,16.49311 1.46169,32.97299 2.1737,49.46051 0.45592,12.63666 0.94177,25.27503 1.10698,37.91896 -0.0141,1.46295 -0.0189,2.92602 -0.0491,4.38859 -0.0568,2.75736 -0.10587,3.36785 -0.25748,5.92101 -0.0425,0.72945 -0.87279,2.10417 -0.13418,2.18844 68.33528,7.79869 65.83173,27.32901 67.30588,1.34731 -0.44079,-8.63848 0.52148,-17.05492 2.44441,-25.46843 3.08575,-12.15695 10.24299,-22.18442 18.10989,-31.77308 10.90313,-12.45023 24.07752,-22.63473 37.87303,-31.78507 12.85683,-8.13231 26.20163,-15.6187 40.4117,-21.21109 5.81145,-1.8084 12.14594,-3.60425 18.33586,-2.66305 1.50303,0.22771 4.65199,1.72744 5.98782,2.31629 10.40196,9.23149 0.25842,2.9846 -17.11508,-5.21509 -0.86986,-0.41009 1.89048,0.44693 2.76038,0.857 2.78272,1.31283 3.87983,2.59588 6.18175,4.62945 9.67058,10.80671 13.92236,24.8931 18.04148,38.41078 5.17432,17.93187 7.69427,36.42632 9.51694,54.93288 1.1906,13.28655 2.08853,26.62166 1.36455,39.95669 -4.05089,31.82258 18.71424,13.10588 66.40725,5.21357 0.0284,-0.005 -0.29764,-12.15127 -0.44599,-19.06582 -0.44315,-18.04819 0.53198,-36.03658 2.75198,-53.94473 2.60806,-19.22371 7.43347,-37.99908 14.32421,-56.14866 5.37581,-13.42138 12.75459,-25.83496 22.88126,-36.28497 7.01047,-6.84671 15.5606,-10.03115 25.26435,-10.50539 5.99499,-0.01 11.6006,1.96441 16.72355,4.93219 1.37216,0.79465 5.48126,3.12 3.97824,2.60174 -6.60454,-2.27822 -12.92778,-5.27868 -19.39171,-7.91812 11.0982,4.10958 19.56113,11.97203 26.72702,20.99424 9.7835,13.87086 14.32166,30.29235 18.54481,46.428 4.1177,17.08062 6.85787,34.43745 9.42643,51.79559 1.5343,9.99751 1.88476,20.11795 1.87456,30.21363 -0.0189,0.90425 -0.0284,1.80879 -0.0472,2.71304 0,0 66.87758,3.96804 66.87758,3.96804 v 0 c -0.1285,-0.80315 -0.257,-1.60744 -0.3855,-2.41096 -1.3835,-11.65343 -1.9419,-23.39679 -3.7793,-34.99853 -3.2169,-18.54 -6.6861,-37.04211 -10.7428,-55.42402 -4.9011,-21.31465 -10.405,-42.66568 -20.66387,-62.20423 -10.33502,-17.4925 -21.41763,-31.10172 -38.63036,-42.5966 -10.79641,-4.78138 -21.40829,-9.98777 -32.38932,-14.34425 -2.95163,-1.17098 -6.15534,-1.62175 -9.28554,-2.18923 -12.77017,-2.31507 -25.74312,-1.70245 -38.30457,1.46262 -19.21437,6.08764 -34.48035,14.60031 -47.87783,29.78116 -12.81935,15.51185 -23.00409,32.7188 -30.06717,51.52007 -7.8557,21.36595 -13.46585,43.37121 -16.86719,65.86129 -2.91908,19.71099 -4.83969,39.4798 -5.34973,59.40548 -0.25181,6.19304 -0.25417,7.11902 -0.62051,13.02151 -0.0954,1.53524 -1.87917,4.44473 -0.32267,4.60318 44.74842,4.55471 69.06141,-19.88475 66.22686,9.82554 -0.0472,0.5121 -0.4044,-0.94876 -0.60661,-1.42223 -2.10303,-14.11824 -2.03292,-28.46929 -3.89452,-42.6206 -2.13997,-21.04148 -4.77421,-42.09874 -9.89792,-62.67137 -4.95549,-19.55159 -10.3731,-39.28233 -20.9564,-56.73742 -3.89929,-5.78721 -11.68398,-17.8216 -17.79515,-21.34205 -17.91476,-10.32 -29.772,-17.03933 -48.87023,-17.95851 -16.68312,0.26456 -32.69253,3.85333 -47.64014,11.34614 -16.0963,8.0914 -31.61382,17.2285 -46.41694,27.4457 -17.00703,12.27015 -33.41481,25.49065 -46.90876,41.5525 -11.91052,14.89796 -22.32803,30.7852 -27.67148,49.20293 -3.11891,11.15727 -5.78589,22.45805 -6.31909,34.06583 -1.43561,23.09432 -0.4389,1.08841 66.56669,10.17704 0.13465,0.0189 -0.33779,0.0189 -0.39542,-0.10013 -0.24615,-0.51401 -0.33544,-1.08954 -0.44033,-1.64711 -0.1885,-1.00346 -0.31984,-2.01685 -0.43889,-3.03043 -0.1663,-1.41515 -0.2778,-2.83616 -0.4167,-4.25405 -0.82941,-12.83546 -1.36213,-25.68897 -2.19358,-38.52481 -0.93062,-16.3064 -2.07837,-32.60683 -2.57467,-48.93288 -0.57023,-16.37849 -1.28768,-32.75064 -1.9902,-49.12422 -0.37276,-9.76498 -0.71338,-19.60215 0.19653,-29.34463 z" />
    <path
       style="fill:#1a1a1a;stroke-width:2.98189"
       id="path30"
       d="m 1114.2561,710.42715 c -1.975,18.09972 -4.2903,36.16468 -6.8541,54.19261 -5.3586,35.21669 -12.1037,70.20926 -18.6711,105.22214 -6.1232,31.48271 -12.1505,62.98299 -18.0287,94.51096 -2.1405,11.38895 -4.057,22.82456 -6.5845,34.14028 -1.1129,4.98486 -1.9497,11.41006 -5.0905,15.69586 0,0 60.9908,24.1405 60.9908,24.1405 v 0 c 6.2476,-19.4995 7.4029,-40.06389 10.7102,-60.16672 4.7811,-31.54431 10.2453,-62.98016 15.9166,-94.38076 6.2995,-35.08402 13.0028,-70.09805 20.5612,-104.94369 3.698,-17.09891 6.8723,-34.38136 11.977,-51.14206 z" />
    <path
       style="fill:#1a1a1a;stroke-width:2.98189"
       id="path31"
       d="m 1039.3664,859.37185 c 10.7873,-2.37694 21.8292,-3.20948 32.823,-4.11609 24.0537,-1.78234 48.166,-2.6348 72.2714,-3.39658 29.7752,-0.83905 59.5638,-0.94015 89.3368,-1.86736 16.6553,-0.55276 8.4726,-0.27024 24.5479,-0.84377 0,0 -20.7433,-58.2498 -20.7433,-58.2498 v 0 c -15.6941,0.9616 -7.7346,0.48472 -23.8784,1.42951 -29.4437,1.39096 -58.9127,1.94806 -88.3893,2.1085 -25.0579,0.28157 -50.1232,0.49512 -75.1618,1.58665 -12.8415,0.66709 -25.6598,1.61347 -38.4484,2.92251 z" />
    <path
       style="fill:#1a1a1a;stroke-width:2.98189"
       id="path32"
       d="m 1264.7001,761.50727 c 5.262,12.95093 12.2979,25.14326 19.5136,37.12238 9.0564,14.59832 18.4537,28.99398 27.9539,43.31668 8.5188,13.42224 19.663,24.56137 32.2896,34.22344 10.4028,4.68558 20.5475,9.96926 31.208,14.05691 2.659,1.02019 5.639,0.89859 8.4807,1.16127 10.7406,0.99108 21.2442,-0.31938 31.7657,-2.31903 17.3803,-4.26775 30.2286,-13.5857 42.2848,-26.19647 9.6372,-10.89222 16.7278,-23.54003 22.3787,-36.78624 4.6281,-11.35379 6.4681,-23.44355 7.3426,-35.56488 0.5395,-9.33958 -0.048,-18.66666 -1.146,-27.94261 -0.9345,-6.72161 -1.858,-13.44161 -2.2715,-20.21631 -1.7167,-25.04453 0.5254,-10.31296 -66.7846,-6.96081 -1.5232,0.0756 -0.6321,20.62313 -0.548,22.74278 0.6605,14.67 -0.1445,29.3315 -1.1345,43.96564 -1.4889,19.24083 -3.3387,38.45415 -5.4444,57.63874 -1.9925,20.0829 -4.8406,40.0663 -8.0577,59.99083 -2.6156,17.31119 -5.8551,34.51503 -9.6918,51.60218 -2.575,12.10129 -5.9233,23.98895 -11.1707,35.23793 -4.456,9.6143 -11.4864,17.5195 -19.0981,24.822 -6.9798,6.2458 -15.1514,10.8917 -23.6967,14.7193 -5.917,2.9464 -11.2818,2.0628 -16.3986,-1.7868 -0.8541,-0.6114 -1.6596,-1.2909 -2.5597,-1.8334 -2.1785,-1.313 -14.6667,-7.2006 -7.1448,-4.1952 37.1204,14.8321 20.8004,9.6232 12.6155,5.603 -6.1189,-3.1852 -10.9966,-7.7909 -15.397,-12.9583 -3.5036,-4.2104 -6.1414,-8.977 -8.3986,-13.9173 -1.2943,-3.1595 -0.6775,-1.5687 -1.8518,-4.7718 0,0 -66.2242,7.4285 -66.2242,7.4285 v 0 c 1.48,5.2495 0.6974,2.6168 2.3539,7.8968 3.0987,8.8727 6.77,17.5576 11.8421,25.5413 6.6332,10.1852 14.179,19.8831 23.715,27.6332 17.8932,14.2623 39.7291,24.1603 62.6076,27.1492 17.157,0.3675 30.1631,-2.3229 45.1654,-10.8378 12.4284,-7.0982 24.2164,-15.2469 34.1806,-25.5217 11.0555,-11.6792 21.0213,-24.3593 27.7633,-38.9827 6.4291,-14.4496 11.179,-29.4311 14.0377,-44.97691 3.5518,-17.96712 6.6946,-35.99915 9.2888,-54.1269 3.1678,-20.60362 6.2508,-41.22841 8.4127,-61.96194 2.2639,-19.61849 4.4365,-39.2503 6.2179,-58.91727 1.5177,-15.99098 2.9721,-32.00068 3.4104,-48.06188 0.056,-3.66539 0.8267,-8.29352 0.2333,-11.95559 -0.038,-0.18898 -0.2012,0.44551 -0.3948,0.42282 -66.0757,-7.66586 -71.23,12.78427 -65.0737,-9.46293 2.5112,5.68762 1.5582,12.48217 3.13,18.42117 1.0379,6.57279 2.031,13.14865 1.9268,19.82561 0.1946,6.5657 -0.4148,13.20388 -2.4541,19.4863 -3.0198,7.66044 -6.7833,15.07767 -12.5488,21.13635 -4.7455,4.33323 -10.0352,7.23165 -16.7051,7.23845 -4.7819,-10e-5 -9.5608,-0.0566 -13.8795,-2.39007 -0.772,-0.41859 -2.9334,-1.89799 -2.1314,-1.53836 7.0563,3.16572 13.9596,6.65092 20.9396,9.97633 -9.438,-0.96433 -16.4062,-8.69262 -22.4263,-15.24877 -9.8469,-12.7132 -18.6475,-26.20338 -27.2543,-39.74543 -5.4099,-8.96517 -10.8701,-17.87493 -14.3682,-27.76913 z" />
    <path
       style="fill:#1a1a1a;stroke-width:2.98189"
       id="path34"
       d="m 261.61937,1387.2234 c -6.54099,-1.0493 -13.06705,-2.1628 -19.6353,-3.0425 -11.39883,-0.7304 -22.20775,2.6073 -32.52048,7.0138 -11.24107,4.8162 -20.49775,12.629 -28.78573,21.3404 -8.56639,8.9954 -13.854,20.1399 -18.432,31.4515 -5.03745,12.2771 -6.60605,25.1555 -6.05547,38.278 1.52817,16.9671 9.54165,29.466 20.94,41.6924 16.34042,15.2096 36.80178,25.3842 58.43188,31.4447 13.8471,3.7971 28.18375,5.3603 42.43384,6.8971 14.02068,1.9039 28.03403,2.9669 42.17442,2.2884 13.171,-0.754 25.1203,-5.613 36.21676,-12.3065 10.5711,-7.0951 17.77474,-17.2551 23.52566,-28.2776 5.34785,-11.2261 7.26663,-23.401 8.1086,-35.6506 0.83698,-12.0772 -0.71196,-24.0565 -3.3419,-35.8259 -2.46448,-10.9035 -7.19755,-20.9788 -12.72657,-30.6609 -5.98095,-10.709 -14.2773,-19.7544 -23.26819,-28.075 -15.57935,-13.5978 -34.09577,-20.695 -52.98879,-29.1024 -9.89777,-4.0515 -20.02624,-5.7726 -30.69103,-5.673 -10.41548,-0.2447 -20.27343,2.663 -29.69698,6.7411 -5.67438,2.8899 -2.91618,1.3971 -8.28098,4.4663 0,0 40.55641,52.0993 40.55641,52.0993 v 0 c 2.12385,-0.754 1.09582,-0.4696 3.07161,-0.8986 3.2511,-0.1266 6.33445,0.6 9.50538,1.2635 4.99293,2.4917 10.12024,4.6361 15.18491,6.9844 -6.80018,-3.0655 -13.65568,-6.015 -20.40043,-9.1965 -1.1819,-0.5574 2.47115,0.8618 3.69728,1.3178 4.97905,1.8513 9.85885,3.9076 14.38043,6.7019 6.09879,3.0965 11.37672,7.3636 15.7303,12.6038 3.81974,5.3884 7.89322,10.7025 10.10618,16.9657 2.39437,6.6725 4.08567,13.5373 3.97829,20.6686 -0.21213,5.5685 -0.34962,11.127 -2.4438,16.3999 -1.31745,2.5351 -2.68739,5.2992 -5.5997,6.2847 -4.70499,1.8113 -9.7398,1.9096 -14.74049,1.7865 -11.65927,-0.411 -23.24792,-1.9121 -34.7931,-3.5012 -10.99951,-1.8949 -21.99992,-4.0904 -32.19042,-8.7618 -10.34235,-5.2364 -5.19369,-2.5665 15.89891,7.1019 1.2497,0.6124 -2.65574,-0.8504 -3.96785,-1.3198 -2.50838,-0.8976 -5.0793,-1.9337 -7.4715,-3.1026 -1.19935,-0.5859 -2.35711,-1.2505 -3.53571,-1.8756 -3.92447,-1.8556 -9.50083,-4.1896 -11.70657,-7.925 -2.26635,-5.0231 -0.5296,-10.5893 1.1992,-15.543 2.06825,-5.3626 4.26832,-10.7084 8.59625,-14.7338 3.53859,-3.1962 7.29752,-5.8006 12.10805,-6.7456 3.63898,-0.2446 5.72188,0.4526 8.97218,2.0718 4.8214,1.1341 9.6984,2.3173 14.16642,4.4812 z" />
    <path
       style="fill:#1a1a1a;stroke-width:2.98189"
       id="path35"
       d="m 313.69493,1387.3837 c 2.14067,7.4486 2.7488,15.2381 3.47437,22.9171 0.95159,11.9517 1.48768,23.9313 1.90087,35.9113 0.20126,14.3254 1.02548,28.6094 2.37251,42.8715 1.60152,15.1111 5.08936,29.9429 8.31194,44.7784 2.6467,11.8813 4.96048,23.8303 7.45606,35.7428 1.96317,8.9618 3.3573,18.0277 5.05634,27.0375 0.79417,4.1764 1.57876,8.3532 2.42593,12.5195 0,0 66.38718,-5.154 66.38718,-5.154 v 0 c -1.1221,-3.1733 -2.23579,-6.3441 -2.63869,-9.7066 -1.97465,-9.2636 -3.6358,-18.5811 -5.65086,-27.8384 -2.7359,-12.0118 -5.63424,-23.9843 -8.16179,-36.0422 -3.05415,-12.9391 -6.12005,-25.9014 -8.38456,-38.9983 -1.35789,-13.192 -2.35313,-26.4128 -2.28901,-39.6825 -0.31465,-12.5676 -0.5932,-25.1376 -1.23454,-37.6945 -0.42189,-9.2081 -1.03091,-18.4016 -1.62865,-27.5994 z" />
    <path
       style="fill:#1a1a1a;stroke-width:2.98189"
       id="path36"
       d="m 570.02159,1371.3209 c -11.0451,1.5769 -21.2572,5.4675 -30.92259,10.8277 -12.08225,7.3454 -20.03145,18.6227 -26.47776,30.7565 -6.9635,13.954 -8.23639,27.7768 -6.66099,43.0219 2.65479,15.5566 10.11099,29.5338 18.28729,42.8963 6.33921,10.3329 13.48422,20.1495 20.16557,30.264 4.6038,6.8879 8.96268,13.9363 12.91612,21.204 2.09451,4.5648 4.47326,9.1425 5.25448,14.1379 0.15779,3.3621 -0.57137,6.8026 -1.89506,9.8981 -0.55124,1.1098 -0.70232,1.5777 -1.44226,2.5169 -1.37963,1.7513 -0.4663,-0.2136 -1.46881,-0.6851 -3.90048,0.6 -7.40618,-0.6056 -11.14773,-1.5079 -0.93109,-0.3486 -1.85102,-0.7285 -2.7934,-1.047 -3.88006,-1.3124 -7.57984,-2.6741 -11.29186,-4.4307 -1.44269,-0.6832 -5.771,-2.7162 -4.278,-2.1475 6.46356,2.462 12.80519,5.2228 19.20775,7.8341 -10.03644,-3.3004 -18.65026,-9.3801 -27.348,-15.1165 -6.50858,-4.6123 -12.18898,-10.2508 -17.77413,-15.8883 -0.64383,-0.6963 -1.28782,-1.3932 -1.93171,-2.0898 0,0 -61.81191,23.7405 -61.81191,23.7405 v 0 c 0.96454,1.3856 1.92903,2.7711 2.89351,4.1568 6.87757,8.8743 14.88492,16.719 23.14664,24.3512 10.75719,9.2106 22.6842,17.1053 34.86287,24.3797 22.58477,9.4476 41.42585,19.2715 66.07059,18.3863 13.11223,-1.037 25.7211,-4.2569 36.62504,-11.801 9.19909,-7.1172 16.36757,-15.6418 20.5166,-26.5265 3.53154,-9.411 5.96456,-19.142 6.15751,-29.2327 -0.2178,-11.246 -2.15631,-22.1161 -6.90567,-32.4377 -4.14335,-9.8853 -9.30949,-19.2421 -15.27,-28.1903 -6.64909,-9.7818 -13.43792,-19.449 -20.36362,-29.044 -5.28015,-7.9151 -10.68293,-15.7471 -14.69957,-24.3903 -1.78356,-4.4429 -2.00505,-8.6967 0.0709,-13.1436 1.64117,-3.0765 3.22357,-6.5327 6.88744,-7.5169 3.75104,-0.8759 7.66246,-1.1107 11.3665,0.1229 z" />
    <path
       style="fill:#1a1a1a;stroke-width:2.98189"
       id="path37"
       d="m 816.22285,1371.982 c 3.31785,7.2829 3.8673,15.5672 4.81671,23.407 1.40174,13.3855 2.01913,26.8339 2.5785,40.2739 0.5159,13.2916 1.48308,26.5588 2.82859,39.7926 1.24847,13.0021 4.37547,25.6221 9.12615,37.7878 5.05134,11.945 13.76891,21.3442 23.59227,29.6704 16.42706,13.7235 36.76829,22.2693 57.67106,27.0055 12.94357,3.1418 26.19295,4.1995 39.48415,4.0866 13.5079,-0.2626 26.4697,-3.2528 38.8844,-8.3251 15.22622,-7.1995 26.16982,-19.3579 35.77992,-32.6396 10.0714,-14.601 17.0507,-30.9491 23.7995,-47.2143 6.1187,-15.1112 11.3918,-30.534 16.013,-46.1459 3.7483,-13.7034 6.6643,-27.6096 9.3447,-41.5473 2.0334,-8.8342 2.501,-17.9632 4.5315,-26.7894 0.076,-0.1484 0.256,-0.6113 0.2333,-0.4469 -3.2962,23.6979 -39.6512,-1.5745 -65.6831,-4.1649 -0.3619,-0.038 0.4091,0.617 0.4648,0.9699 0.1569,0.9834 0.2296,1.9766 0.3449,2.9651 1.5369,10.2096 3.7609,20.3207 5.8487,30.4359 3.0209,14.5089 6.4152,28.9395 9.4713,43.4408 2.7071,12.9615 4.6213,26.0611 6.2493,39.1902 1.3111,10.7327 2.1104,21.5158 3.3388,32.2567 1.0595,8.4028 1.9937,16.8191 2.8284,25.2463 0.857,6.5778 1.896,13.1298 2.7207,19.712 0,0 66.6572,1.539 66.6572,1.539 v 0 c -0.7616,-6.9496 -1.6361,-13.8912 -2.9439,-20.7651 -1.6443,-8.1847 -1.7945,-16.6186 -3.3208,-24.8335 -1.5792,-10.7129 -2.7136,-21.4706 -4.079,-32.2125 -1.9084,-14.2746 -3.9752,-28.5352 -6.7842,-42.6702 -2.8805,-14.2667 -6.2747,-28.4239 -9.0267,-42.716 -1.5162,-8.8366 -2.7288,-17.7033 -3.9929,-26.5743 -0.102,-1.114 -0.1304,-9.5144 -0.7313,-9.6494 -44.8964,-10.0979 -64.5527,-32.3535 -67.3742,-4.6481 -0.4185,8.2764 -0.7578,16.558 -2.3584,24.7215 -1.9863,12.4237 -4.155,24.8395 -7.4139,37.0128 -3.8729,13.9857 -8.4008,27.7922 -13.72912,41.3122 -5.2745,12.6396 -10.5766,25.4628 -18.81,36.5785 -4.2883,5.3194 -8.9614,10.851 -15.9899,12.5028 -7.1443,1.5033 -14.482,1.9802 -21.76512,1.2867 -9.27496,-1.0927 -18.4234,-3.0067 -27.17168,-6.2952 -8.68592,-3.7095 -25.05761,-12.7685 12.66888,5.6627 4.67971,2.2863 -14.496,-4.4806 -9.72048,-3.5454 -4.99105,-3.026 -10.12582,-5.8463 -14.78636,-9.3456 -5.27432,-5.9204 -6.37804,-14.1594 -7.96819,-21.6174 -1.77608,-11.9703 -2.61363,-24.0311 -3.47726,-36.0928 -0.60377,-14.1552 -1.2616,-28.3085 -2.12466,-42.451 -0.66425,-10.7089 -1.49934,-21.4086 -2.83776,-32.0593 z" />
    <path
       style="fill:#1a1a1a;stroke-width:2.98189"
       id="path38"
       d="m 1182.8131,1338.9964 c 0.7342,12.8164 2.6554,25.492 4.8173,38.14 3.4255,18.4967 6.529,37.0451 9.4066,55.6309 2.6365,17.3047 4.8555,34.667 7.1546,52.0173 1.549,10.759 2.3377,21.6044 3.7623,32.377 8.6404,27.3446 1.8316,17.2805 60.6715,17.3131 1.3381,8e-4 10.3492,-16.522 11.7465,-18.9005 6.4287,-10.136 14.0823,-19.476 21.7527,-28.7204 9.3129,-11.5561 18.9801,-22.8405 30.0718,-32.787 8.6141,-8.1557 18.9422,-13.7332 29.8158,-18.3616 10.7542,-4.472 22.0074,-6.7881 33.6068,-7.5272 10.6945,-0.651 19.7477,3.7118 29.24,7.767 19.1815,9.701 -29.7636,-12.6432 -9.7571,-3.2887 1.4412,0.6737 2.8636,1.3859 4.2952,2.0789 0,0 50.1945,-41.7198 50.1945,-41.7198 v 0 c -15.685,-8.2501 -31.7632,-16.2402 -48.9371,-20.9889 -16.6053,-4.2423 -33.5463,-5.6 -50.5558,-2.6245 -16.1708,3.0499 -32.0091,7.5962 -46.7616,14.9279 -14.8072,7.7174 -28.6946,16.858 -40.5059,28.666 -11.8387,11.7169 -22.7681,24.2347 -33.423,36.9972 -9.2326,10.8961 -18.4575,21.8527 -26.4601,33.6712 -0.6425,0.981 -4.0153,6.1707 -4.9592,7.5089 -0.3685,0.5215 -1.4931,2.0666 -1.1814,1.5104 0.4385,-0.7834 0.6643,-2.3105 1.5659,-2.1968 56.924,7.172 50.6038,-7.9797 56.3511,18.4267 -1.1553,0.8815 -0.7681,0.9287 -1.5903,-1.4354 -2.5187,-7.2445 -2.9407,-15.077 -4.4072,-22.539 -2.7903,-17.4638 -5.4709,-34.9401 -8.0415,-52.4363 -2.8994,-18.5498 -5.6874,-37.1149 -8.6871,-55.6496 -1.4138,-10.1405 -3.312,-20.4535 -2.1637,-30.7104 z" />
    <path
       style="fill:#1a1a1a;stroke-width:2.98189"
       id="path39"
       d="m 1676.0379,1270.8568 c 0.9003,10.8397 1.1862,21.7269 1.7586,32.5899 1.3667,21.6001 2.9686,43.1825 4.2172,64.7898 1.3028,24.5556 2.5449,49.1137 3.918,73.6655 1.1464,19.9793 2.1205,39.9676 2.9655,59.9613 0.6388,14.994 0.9902,29.9977 1.3212,45.0005 0.047,4.2869 0.1025,8.5895 -0.3458,12.8608 -0.066,0.6434 0.1569,2.4011 -0.2844,1.9209 -0.4715,-0.513 -0.1175,-1.4302 0.1464,-2.0708 1.8209,-4.3862 4.0454,-8.6001 6.068,-12.9001 69.7679,18.35 62.4751,31.3625 53.9563,-2.2779 -2.1972,-9.5387 -3.9873,-19.1892 -4.6713,-28.9531 -0.5452,-10.4441 3.4868,-19.9616 8.2166,-29.0684 5.3014,-9.8612 12.8949,-18.0755 21.079,-25.676 5.732,-4.9354 11.7039,-10.1895 19.4439,-11.4194 9.2734,-0.5121 18.5675,0.2079 27.7963,1.0672 12.8513,1.2923 25.6381,3.2455 36.9953,9.5441 -39.3438,-14.0953 -18.92,-9.0786 -11.7623,-4.224 4.448,3.0167 7.7186,6.9685 11.0411,11.0807 6.7484,9.1637 10.9121,19.6833 13.944,30.5083 1.2964,6.6522 3.0331,13.8831 0.8957,20.541 -2.5823,4.0055 -7.2872,5.7885 -11.4457,7.7872 -8.9688,3.9954 -18.5388,5.8894 -28.2044,7.3259 -12.6487,1.2815 -25.3446,1.1108 -37.9551,-0.3807 -4.853,-0.6728 -9.8913,-1.6548 -14.139,-4.2307 -1.0323,-0.6255 -3.972,-2.6491 -2.8314,-2.2446 7.1274,2.5275 13.9906,5.725 20.9503,8.6701 1.0957,0.4639 -2.2372,-0.8163 -3.3557,-1.225 -6.1101,-2.7408 -11.138,-7.1192 -15.8957,-11.6798 0,0 -59.8445,27.1313 -59.8445,27.1313 v 0 c 7.0315,8.4328 14.5272,16.4873 23.2505,23.2828 20.2096,15.0105 43.6002,21.829 68.399,22.0449 16.4862,0.1701 33.0755,-0.3383 49.2815,-3.5897 15.0305,-3.3358 29.7731,-8.0442 42.9494,-16.0926 14.0767,-9.3777 25.938,-20.7837 31.5372,-37.0161 4.305,-15.492 4.6955,-28.7871 1.443,-44.5763 -3.6327,-16.3465 -9.2439,-32.1655 -17.6497,-46.7803 -6.6285,-10.8545 -13.7707,-21.1347 -23.3498,-29.7418 -2.4737,-2.2228 -4.7964,-4.7553 -7.7734,-6.2683 -10.4561,-5.3144 -21.5166,-9.3908 -32.2748,-14.0862 -16.6455,-4.1774 -33.6399,-6.6237 -50.8193,-7.3454 -16.3084,-0.411 -32.7822,0.019 -47.9102,6.8059 -12.5028,6.2957 -23.7459,14.3286 -33.3238,24.5079 -11.1577,11.6782 -21.3544,24.2169 -28.7686,38.5794 -8.0145,16.0541 -14.5064,32.8481 -15.0428,50.9642 -0.013,12.7459 1.5643,25.3359 4.0317,37.8496 7.2432,38.6688 -2.1517,20.4054 64.738,41.1457 2.2285,-4.5082 4.8213,-8.8595 6.6857,-13.5249 2.1651,-5.4179 -0.6699,-17.2238 -0.257,-23.0099 -0.7597,-15.2595 -1.6152,-30.5141 -2.4641,-45.769 -1.1978,-20.2392 -2.5939,-40.4659 -4.1733,-60.68 -1.8012,-24.3121 -3.2346,-48.6513 -4.1187,-73.0135 -0.9005,-21.1836 -2.0789,-42.3624 -2.3409,-63.566 0.013,-10.3568 0,-20.7472 1.0584,-31.0624 z" />
    <path
       style="fill:#1a1a1a;stroke-width:2.98189"
       id="path40"
       d="m 2014.081,1424.2959 c -8.7739,2.7263 -17.1518,6.2313 -25.3019,10.4477 -11.3992,6.3295 -20.2275,15.5886 -27.6966,25.989 -6.8615,10.2934 -11.236,21.834 -15.0524,33.4765 -4.2889,13.1436 -4.5434,26.6804 -2.6341,40.2252 1.9717,11.6419 6.3441,22.594 11.5215,33.1693 14.583,25.2199 27.6157,27.5996 55.5825,40.1797 18.0165,4.818 36.6715,6.3555 55.1926,8.0404 20.8205,1.3623 41.6573,1.1463 62.2339,-2.343 19.7509,-3.7995 33.2501,-13.014 46.8494,-27.067 10.714,-11.7127 17.7533,-25.441 22.144,-40.468 4.0285,-15.8985 1.4177,-31.5559 -3.397,-46.9051 -5.0522,-14.7288 -13.7509,-27.5093 -23.9692,-39.2018 -10.578,-11.5726 -23.577,-20.278 -37.387,-27.6567 -21.1941,-11.4308 -43.5626,-19.6329 -67.3818,-22.934 -15.6869,-1.5033 -31.4577,-0.6189 -47.174,-0.1937 -13.1665,0.038 -26.2929,0.6255 -39.2858,2.7624 -7.751,1.7172 -4.0297,0.8693 -11.1661,2.5328 0,0 29.4334,58.1915 29.4334,58.1915 v 0 c 4.9168,-0.9621 2.461,-0.567 7.3663,-1.1935 11.2332,-1.0013 22.5032,-1.4438 33.7783,-1.6741 12.3807,-0.156 24.9452,-0.2997 37.0009,2.8962 5.2236,1.515 10.3428,3.0756 15.3932,5.0931 1.8424,0.7362 7.3181,3.0645 5.5019,2.2685 -17.7016,-7.7583 -25.0358,-10.3585 -12.4746,-5.7131 9.7972,4.079 19.9037,7.8981 28.1501,14.7079 7.1512,5.5242 13.5349,11.8725 17.5137,20.0389 2.8958,5.6678 5.6099,11.7227 5.2688,18.2036 -1.3656,7.239 -5.0496,13.4225 -10.1445,18.8252 -6.0879,5.7795 -13.1664,8.4505 -21.6338,9.3209 -16.5991,1.8028 -33.3765,1.7228 -49.9337,-0.5801 -14.3528,-2.1594 -29.1518,-4.348 -42.0716,-11.252 6.6148,3.0942 13.3767,5.9015 19.8445,9.2827 0.9685,0.5064 -2.1584,-0.3817 -3.2325,-0.5981 -2.4197,-0.4876 -4.7047,-0.6057 -6.7715,-2.0147 -0.6587,-0.447 -1.2344,-1.0013 -1.8518,-1.5023 -4.6192,-4.3474 -6.7216,-10.706 -9.0021,-16.4337 -1.8814,-5.6758 -2.7939,-10.9835 -0.8995,-16.8825 2.0462,-6.7442 4.2356,-13.5728 8.2292,-19.4873 3.0062,-3.784 6.6275,-6.8359 11.2729,-8.5087 5.5729,-2.1493 11.4869,-3.5067 17.4018,-4.3382 z" />
    <path
       style="fill:#1a1a1a;stroke-width:2.98189"
       id="path41"
       d="m 2088.4964,1413.8493 c 3.4158,7.5335 4.899,15.9698 6.73,24.0098 3.2187,13.7137 5.4098,27.6195 7.2302,41.5697 1.9721,15.0705 3.1476,30.2189 4.0593,45.3815 0.8058,14.4713 1.3842,28.954 1.7796,43.4412 0.2787,11.4521 0.4469,22.9065 0.6,34.3606 0.2532,8.3172 -0.2126,16.6286 -0.5981,24.9339 0,0 65.6952,8.8686 65.6952,8.8686 v 0 c 0.2966,-9.3134 0.7994,-18.6403 0.4544,-27.9565 -0.4044,-11.6545 -0.8711,-23.3068 -1.3953,-34.9565 -0.6453,-14.8894 -1.2388,-29.7815 -2.1783,-44.6569 -1.0004,-16.1282 -1.9052,-32.2741 -3.746,-48.3362 -1.8245,-15.0087 -3.87,-29.9944 -6.6635,-44.8631 -1.6579,-9.634 -3.4654,-19.2497 -4.8415,-28.9246 z" />
    <path
       style="fill:#1a1a1a;stroke-width:2.98189"
       id="path42"
       d="m 2205.3629,1299.6822 c 1.8798,9.2174 2.0848,18.7053 2.5666,28.0722 0.7616,16.3694 1.1026,32.7538 1.4177,49.1362 0.3694,19.758 0.5358,39.5187 0.634,59.2795 0.1275,20.0074 0.1644,40.0157 0.1025,60.0234 -0.2626,16.7187 -0.8182,33.4351 -1.5928,50.1383 -0.7654,12.8107 -1.7292,25.6087 -2.5674,38.4148 -0.3969,5.1165 -0.5481,10.2496 -0.9071,15.3682 -0.2693,3.846 -0.189,6.5102 -0.8665,5.3534 0.4242,-1.3665 0.8495,-2.733 1.2727,-4.0995 0,0 59.443,31.0608 59.443,31.0608 v 0 c 1.0526,-2.4599 2.1056,-4.92 3.1585,-7.38 2.3576,-10.1955 2.6023,-20.5243 2.7823,-30.9519 0.4876,-12.9839 1.0548,-25.9645 1.627,-38.9451 0.703,-17.4314 0.6822,-34.8847 0.9537,-52.326 -0.1662,-20.0493 -0.2456,-40.0994 -0.3022,-60.1493 -0.095,-19.8316 -0.1418,-39.6629 -0.1645,-59.4948 -0.037,-16.6088 -0.066,-33.2179 -0.1503,-49.8266 -0.056,-10.3179 -0.29,-20.642 0.013,-30.9571 z" />
    <path
       style="fill:#1a1a1a;stroke-width:2.98189"
       id="path43"
       d="m 2307.6235,1329.2456 c 1.7136,8.5857 1.9969,17.391 2.471,26.1083 0.8986,14.8476 0.964,29.7132 0.7285,44.579 -0.3175,15.7435 -0.5774,31.4876 -0.824,47.2324 -0.2674,14.1527 -1.2004,28.2754 -2.2393,42.3894 -1.0458,13.4738 -1.6421,26.9735 -2.648,40.4498 -0.925,12.0396 -1.9243,24.0735 -2.7952,36.1171 -0.6699,9.287 -1.1896,18.5835 -1.6403,27.8829 -0.1225,6.8737 -0.7757,13.708 -1.451,20.5441 -0.43,4.5041 -0.2221,2.2521 -0.6265,6.7561 0,0 65.7398,10.9683 65.7398,10.9683 v 0 c 0.3127,-4.156 0.1474,-2.0643 0.4931,-6.2748 0.6756,-7.7074 1.51,-15.4086 1.4846,-23.155 0.256,-9.0009 0.5547,-18.0007 0.9617,-26.9965 0.5442,-11.8515 1.1523,-23.7016 2.048,-35.5332 0.9981,-13.5472 1.7166,-27.1072 2.5476,-40.6652 0.9935,-15.0002 1.965,-29.9992 2.2385,-45.0337 0.1672,-15.698 0.4176,-31.3955 0.6936,-47.092 0.2683,-15.5448 0.564,-31.0859 0.3194,-46.6337 -0.056,-9.6414 -0.2315,-19.2862 -0.076,-28.9266 z" />
    <path
       style="fill:#1a1a1a;stroke-width:2.98189"
       id="path44"
       d="m 2596.1334,1406.5705 c -16.936,-9.1334 -34.5199,-13.1947 -52.848,-17.512 -11.2793,-3.0549 -22.691,-4.4356 -34.3613,-4.0724 -14.4887,0.4885 -27.0401,6.4602 -38.3664,14.9183 -9.7538,8.0377 -16.3631,18.4776 -21.6807,29.6771 -5.1695,11.866 -5.5748,24.5078 -4.5068,37.1567 1.4394,13.0615 6.146,25.3865 10.9189,37.5525 5.3286,13.198 11.7319,25.9073 18.819,38.2669 6.5683,11.3407 14.3015,21.9651 22.0433,32.5472 6.016,8.3292 11.9645,16.7224 18.3708,24.7687 4.4372,5.2971 8.4258,10.9102 12.2862,16.6172 2.9248,4.1476 5.2405,8.6319 7.1733,13.2941 2.8234,8.4293 1.7344,3.1047 3.193,-2.0112 5.0422,-9.6123 3.875,-7.3875 -5.4288,-5.8446 -9.6849,1.6982 -19.463,2.5776 -29.2957,2.2611 -9.368,-0.4081 -14.3272,-2.6256 -22.1065,-7.1673 6.5632,2.6933 13.1459,5.3405 19.6897,8.0794 1.4688,0.6143 -3.0088,-1.0615 -4.4643,-1.7069 -6.8085,-3.0177 -13.0946,-7.0968 -19.4889,-10.8512 -5.265,-2.9556 -10.1193,-6.5053 -15.0947,-9.8898 0,0 -55.349,35.4774 -55.349,35.4774 v 0 c 5.757,4.5123 11.7552,8.7306 17.8014,12.8603 5.2713,3.3963 10.6648,6.5712 15.9977,9.8741 4.0754,2.5241 7.8784,5.5442 12.2461,7.5409 10.1035,4.6183 20.4687,8.6627 30.703,12.9941 13.4722,3.6636 27.2633,5.131 41.2363,3.8617 12.7767,-1.113 25.5264,-2.6977 38.0196,-5.637 15.102,-4.0818 28.452,-10.0541 36.4165,-24.2127 1.0174,-2.5786 2.2958,-5.0715 3.0523,-7.7351 2.508,-8.8317 1.5045,-18.065 -1.0425,-26.743 -2.5083,-8.1228 -5.47,-16.1225 -9.6832,-23.5629 -4.4112,-7.5999 -9.1796,-14.9893 -14.5738,-21.958 -6.0774,-7.5369 -12.5189,-14.7996 -18.2362,-22.6205 -6.9878,-9.5149 -14.4482,-18.7055 -21.035,-28.4979 -6.4683,-10.0074 -12.5421,-20.3085 -16.9332,-31.387 -3.563,-8.0316 -6.727,-16.2576 -9.1884,-24.6802 -0.7162,-3.9227 -1.666,-8.049 -0.9289,-12.0279 1.3413,-3.3386 3.2118,-6.7816 6.3958,-8.7406 3.4271,-1.1972 7.0926,-0.1805 10.5962,0.125 7.9315,1.5278 15.7353,3.6557 23.4965,5.8577 3.0743,0.9565 6.184,1.806 9.232,2.8405 10.2334,3.4726 30.9563,15.1758 -12.9172,-5.1022 z" />
  </g>
</svg>
