<?xml version="1.0" encoding="UTF-8" standalone="no"?>
<svg
   viewBox="0 0 640 640"
   version="1.1"
   id="svg1"
   sodipodi:docname="logout.svg"
   inkscape:version="1.4.2 (ebf0e940d0, 2025-05-08)"
   xmlns:inkscape="http://www.inkscape.org/namespaces/inkscape"
   xmlns:sodipodi="http://sodipodi.sourceforge.net/DTD/sodipodi-0.dtd"
   xmlns="http://www.w3.org/2000/svg"
   xmlns:svg="http://www.w3.org/2000/svg">
  <defs
     id="defs1" />
  <sodipodi:namedview
     id="namedview1"
     pagecolor="#505050"
     bordercolor="#ffffff"
     borderopacity="1"
     inkscape:showpageshadow="0"
     inkscape:pageopacity="0"
     inkscape:pagecheckerboard="1"
     inkscape:deskcolor="#505050"
     inkscape:zoom="0.66796875"
     inkscape:cx="235.04094"
     inkscape:cy="467.08772"
     inkscape:window-width="1266"
     inkscape:window-height="1426"
     inkscape:window-x="0"
     inkscape:window-y="0"
     inkscape:window-maximized="1"
     inkscape:current-layer="svg1" />
  <!--!Font Awesome Free 7.1.0 by @fontawesome - https://fontawesome.com License - https://fontawesome.com/license/free Copyright 2025 Fonticons, Inc.-->
  <path
     d="m 568.975,337 c 9.4,-9.4 9.4,-24.6 0,-33.9 l -144,-144.1 c -6.9,-6.9 -17.2,-8.9 -26.2,-5.2 -9,3.7 -14.8,12.5 -14.8,22.2 v 80 h -112 c -26.5,0 -48,21.5 -48,48 v 32 c 0,26.5 21.5,48 48,48 h 112 v 80 c 0,9.7 5.8,18.5 14.8,22.2 9,3.7 19.3,1.7 26.2,-5.2 z m -345,-177 c 17.7,0 32,-14.3 32,-32 0,-17.7 -14.3,-32 -32,-32 h -64 c -53,0 -96,43 -96,96 v 256 c 0,53 43,96 96,96 h 64 c 17.7,0 32,-14.3 32,-32 0,-17.7 -14.3,-32 -32,-32 h -64 c -17.7,0 -32,-14.3 -32,-32 V 192 c 0,-17.7 14.3,-32 32,-32 z"
     id="path1" />
</svg>
