<?xml version="1.0" encoding="UTF-8" standalone="no"?>
<svg
   viewBox="0 0 640 640"
   version="1.1"
   id="svg1"
   sodipodi:docname="moon.svg"
   inkscape:version="1.4.2 (ebf0e940d0, 2025-05-08)"
   xmlns:inkscape="http://www.inkscape.org/namespaces/inkscape"
   xmlns:sodipodi="http://sodipodi.sourceforge.net/DTD/sodipodi-0.dtd"
   xmlns="http://www.w3.org/2000/svg"
   xmlns:svg="http://www.w3.org/2000/svg">
  <defs
     id="defs1" />
  <sodipodi:namedview
     id="namedview1"
     pagecolor="#505050"
     bordercolor="#ffffff"
     borderopacity="1"
     inkscape:showpageshadow="0"
     inkscape:pageopacity="0"
     inkscape:pagecheckerboard="1"
     inkscape:deskcolor="#505050"
     inkscape:zoom="0.80390625"
     inkscape:cx="296.05442"
     inkscape:cy="272.41982"
     inkscape:window-width="2560"
     inkscape:window-height="1440"
     inkscape:window-x="0"
     inkscape:window-y="0"
     inkscape:window-maximized="1"
     inkscape:current-layer="svg1" />
  <!--!Font Awesome Free 7.1.0 by @fontawesome - https://fontawesome.com License - https://fontawesome.com/license/free Copyright 2025 Fonticons, Inc.-->
  <path
     d="m 355.66443,64 c -141.4,0 -256.000002,114.6 -256.000002,256 0,141.4 114.600002,256 256.000002,256 68.8,0 131.3,-27.2 177.3,-71.4 7.3,-7 9.4,-17.9 5.3,-27.1 -4.1,-9.2 -13.7,-14.9 -23.8,-14.1 -4.9,0.4 -9.8,0.6 -14.8,0.6 -101.6,0 -184,-82.4 -184,-184 0,-72.1 41.5,-134.6 102.1,-164.8 9.1,-4.5 14.3,-14.3 13.1,-24.4 -1.2,-10.1 -8.6,-18.3 -18.5,-20.5 -18.3,-4.1 -37.3,-6.3 -56.7,-6.3 z"
     id="path1" />
</svg>
