<?xml version="1.0" encoding="UTF-8" standalone="no"?>
<!-- Created with Inkscape (http://www.inkscape.org/) -->

<svg
   width="640"
   height="640"
   viewBox="0 0 169.33333 169.33333"
   version="1.1"
   id="svg1"
   inkscape:version="1.4.2 (ebf0e940d0, 2025-05-08)"
   sodipodi:docname="noimage.svg"
   xmlns:inkscape="http://www.inkscape.org/namespaces/inkscape"
   xmlns:sodipodi="http://sodipodi.sourceforge.net/DTD/sodipodi-0.dtd"
   xmlns="http://www.w3.org/2000/svg"
   xmlns:svg="http://www.w3.org/2000/svg">
  <sodipodi:namedview
     id="namedview1"
     pagecolor="#505050"
     bordercolor="#ffffff"
     borderopacity="1"
     inkscape:showpageshadow="0"
     inkscape:pageopacity="0"
     inkscape:pagecheckerboard="1"
     inkscape:deskcolor="#505050"
     inkscape:document-units="px"
     inkscape:zoom="3.4850168"
     inkscape:cx="240.88837"
     inkscape:cy="518.21845"
     inkscape:window-width="2476"
     inkscape:window-height="1432"
     inkscape:window-x="0"
     inkscape:window-y="0"
     inkscape:window-maximized="1"
     inkscape:current-layer="layer1" />
  <defs
     id="defs1" />
  <g
     inkscape:groupmode="layer"
     id="layer1"
     inkscape:label="Layer 1">
    <path
       style="fill:#1a1a1a;stroke-width:0.264583"
       d="m 70.218307,5.5831074 c -1.279949,0.306725 -1.679909,1.429821 -2.57682,2.147349 -0.201525,0.16122 -0.461714,0.24698 -0.644205,0.429469 -0.358862,0.358863 -3.27303,5.5764076 -3.435757,6.2273116 -0.164018,0.656066 -0.429469,1.466826 -0.429469,2.147348 0,2.055074 0.09603,-0.480161 -0.214736,1.073674 -0.209394,1.046969 0,2.370119 0,3.43576 0,2.93471 0,5.869418 0,8.804129 0,2.040372 -0.106333,-0.478504 0.429469,1.932615 0.06211,0.279495 -0.03551,0.574836 0,0.858938 0.100886,0.807087 0.51226,1.570405 0.644205,2.362083 0.08237,0.494231 0,1.002096 0,1.503146 0,2.048994 -0.439052,5.349205 0.429472,7.08625 0.06482,0.129652 -0.09927,0.544942 0,0.644205 0.05061,0.05062 0.164121,-0.05061 0.214733,0 0.1289,0.1289 0.175707,0.475031 0.429469,0.644205 1.734037,1.156023 3.801094,1.073674 5.797844,1.073674 0.330509,0 1.185087,0.159028 1.503142,0 0.422617,-0.211307 0.561414,-0.561414 0.858941,-0.858938 0.521549,-0.521549 0.31532,0.06385 0.644205,-0.429472 2.500125,-3.750188 3.031299,-7.476061 3.650493,-11.810417 0.06402,-0.448152 0.355045,-0.841868 0.429469,-1.28841 0.08237,-0.494231 -0.07086,-1.007131 0,-1.503143 0.03201,-0.224076 0.177522,-0.420934 0.214736,-0.644205 0.08237,-0.494231 -0.07086,-1.007134 0,-1.503145 0.03201,-0.224076 0.170344,-0.422249 0.214733,-0.644205 0.231844,-1.159214 -0.05488,-2.531486 -0.214733,-3.650493 -0.08098,-0.56687 0.07102,-1.149673 0,-1.717879 -0.03661,-0.292846 -0.172998,-0.56678 -0.214736,-0.858938 -0.06074,-0.425154 0.0706,-0.864783 0,-1.28841 -0.145174,-0.87104 -0.498938,-1.705221 -0.644205,-2.576819 -0.156096,-0.936575 -0.243448,-1.86145 -0.429469,-2.791553 -0.105889,-0.529447 -0.574032,-1.075785 -0.85894,-1.503145 -0.625243,-0.937864 0.09517,0.07078 -0.214734,-0.858938 -0.140425,-0.42127 -0.669406,-0.909342 -0.85894,-1.28841 -0.09054,-0.18108 -0.338929,-0.24839 -0.429469,-0.42947 -0.09182,-0.183647 -0.122912,-0.4605566 -0.214736,-0.6442036 -0.243232,-0.486463 -1.744501,-1.945925 -2.147348,-2.14735 -0.719688,-0.359843 -1.391298,-1.643912 -1.932614,-1.932613 -2.784465,-1.485047 -1.244418,0.644204 -2.147351,0.644204"
       id="path6" />
    <path
       style="fill:#1a1a1a;stroke-width:0.264583"
       d="m 104.06296,7.6662034 c -1.27995,0.306725 -1.67991,1.429821 -2.57682,2.147349 -0.20153,0.16122 -0.46171,0.2469796 -0.64421,0.4294686 -0.35886,0.358863 -3.273025,5.576408 -3.435752,6.227312 -0.164018,0.656066 -0.429469,1.466826 -0.429469,2.147348 0,2.055074 0.09603,-0.480161 -0.214736,1.073674 -0.209394,1.046969 0,2.370119 0,3.43576 0,2.93471 0,5.869418 0,8.804129 0,2.040372 -0.106333,-0.478504 0.429469,1.932615 0.06211,0.279495 -0.03551,0.574836 0,0.858938 0.100886,0.807087 0.51226,1.570405 0.644205,2.362083 0.08237,0.494231 0,1.002096 0,1.503146 0,2.048994 -0.439052,5.349205 0.429472,7.08625 0.06482,0.129652 -0.09927,0.544942 0,0.644205 0.05061,0.05062 0.164121,-0.05061 0.214733,0 0.1289,0.1289 0.175707,0.475031 0.429469,0.644205 1.734039,1.156023 3.801089,1.073674 5.797839,1.073674 0.33051,0 1.18509,0.159028 1.50315,0 0.42261,-0.211307 0.56141,-0.561414 0.85894,-0.858938 0.52155,-0.521549 0.31532,0.06385 0.6442,-0.429472 2.50013,-3.750188 3.0313,-7.476061 3.6505,-11.810417 0.064,-0.448152 0.35504,-0.841868 0.42946,-1.28841 0.0824,-0.494231 -0.0709,-1.007131 0,-1.503143 0.032,-0.224076 0.17753,-0.420934 0.21474,-0.644205 0.0824,-0.494231 -0.0709,-1.007134 0,-1.503145 0.032,-0.224076 0.17034,-0.422249 0.21473,-0.644205 0.23185,-1.159214 -0.0549,-2.531486 -0.21473,-3.650493 -0.081,-0.56687 0.071,-1.149673 0,-1.717879 -0.0366,-0.292846 -0.173,-0.56678 -0.21474,-0.858938 -0.0607,-0.425154 0.0706,-0.864783 0,-1.28841 -0.14517,-0.87104 -0.49893,-1.705221 -0.6442,-2.576819 -0.1561,-0.936575 -0.24345,-1.86145 -0.42947,-2.791553 -0.10589,-0.529447 -0.57403,-1.075785 -0.85894,-1.503145 -0.62524,-0.937864 0.0952,0.07078 -0.21473,-0.858938 -0.14043,-0.42127 -0.66941,-0.909342 -0.85894,-1.28841 -0.0905,-0.18108 -0.33893,-0.24839 -0.42947,-0.42947 -0.0918,-0.183647 -0.12291,-0.460557 -0.21474,-0.644204 -0.24323,-0.486463 -1.7445,-1.9459246 -2.14735,-2.1473496 -0.71968,-0.359843 -1.39129,-1.643912 -1.93261,-1.932613 -2.78447,-1.485047 -1.24442,0.644204 -2.14735,0.644204"
       id="path6-3" />
    <path
       id="path9"
       style="fill:#1a1a1a;stroke-width:0.264583"
       d="m 103.26398,82.20325 c 0.006,0.05992 0.0105,0.118772 0.0145,0.176733 0.0812,0.01878 0.16234,0.03803 0.24339,0.05736 -0.0819,-0.08088 -0.16658,-0.15908 -0.25786,-0.234094 z" />
    <circle
       id="path21"
       style="fill:#1a1a1a;stroke:#000000;stroke-width:0.264583"
       cx="204.85709"
       cy="1.9326138"
       r="0.036976121" />
    <path
       style="fill:#1a1a1a;stroke-width:0.264583"
       id="path22"
       d="m 63.46433,76.791203 c -0.244541,-0.427575 -0.293523,-0.936853 -0.305085,-1.420371 0.04003,-1.075283 0.375319,-2.102271 0.743857,-3.103197 0.386445,-1.010513 0.952619,-1.926225 1.646507,-2.751228 0.680006,-0.754261 1.525596,-1.309682 2.391318,-1.824514 1.072435,-0.587946 2.232186,-0.970396 3.390781,-1.345152 1.469279,-0.439647 2.968297,-0.762751 4.464248,-1.095134 1.627039,-0.326136 3.26857,-0.600268 4.926407,-0.692756 1.94352,-0.112342 3.89315,-0.08865 5.835126,0.0361 1.730502,0.124153 3.449412,0.347631 5.159269,0.637119 1.377439,0.263181 2.726333,0.626105 4.010107,1.193602 1.349952,0.769009 4.039944,1.939488 -2.307124,-0.904619 -0.192392,-0.08621 0.393258,0.152432 0.586475,0.236771 0.469791,0.205065 0.695201,0.330448 1.144884,0.562787 1.02058,0.549502 1.943706,1.234496 2.757757,2.056635 0.872665,0.915215 1.587,1.958306 2.227363,3.044188 0.61632,1.071702 1.13485,2.194205 1.59574,3.340179 0.39518,1.042905 0.72619,2.108274 1.0772,3.16634 0.26435,0.883722 0.55548,1.759085 0.82627,2.640743 0.17525,0.630311 0.44342,1.231939 0.6102,1.863886 0.22528,0.933461 0.0827,0.414777 0.45493,1.548366 0,0 11.08664,-3.809281 11.08664,-3.809281 v 0 c 0.0605,0.611876 0.12952,0.388229 -0.005,0.702197 -0.27463,-0.652929 -0.46076,-1.342769 -0.76099,-1.986484 -0.34671,-0.816515 -0.63618,-1.657313 -0.9724,-2.478395 -0.40552,-1.169841 -0.85687,-2.323406 -1.29424,-3.481792 -0.56066,-1.494126 -1.18471,-2.964286 -1.91707,-4.383407 -0.82235,-1.588961 -1.70837,-3.146206 -2.78756,-4.578049 -1.16984,-1.536816 -2.415,-3.019851 -4.00084,-4.150055 -0.7658,-0.560152 -0.78489,-0.592474 -1.57816,-1.100572 -0.27365,-0.175273 -0.53557,-0.373446 -0.82914,-0.512805 -2.258946,-1.072321 -4.345948,-2.158322 -6.728867,-2.76343 -1.805951,-0.428318 -3.633711,-0.7714 -5.486532,-0.91731 -1.938232,-0.157168 -3.881001,-0.238755 -5.825996,-0.234556 -2.237221,0.0077 -4.478165,0.01122 -6.707711,0.221742 -2.029267,0.222316 -4.061722,0.456309 -6.044829,0.960155 -1.768452,0.422767 -3.526494,0.896281 -5.245249,1.492599 -1.77329,0.65042 -3.509793,1.407943 -5.070572,2.487284 -1.566268,1.098045 -3.032747,2.327627 -4.188878,3.867272 -1.105644,1.511422 -2.081091,3.1086 -2.737877,4.871696 -0.623681,1.604851 -1.173588,3.244858 -1.529837,4.931733 -0.207608,1.05615 -0.346202,2.116867 -0.461981,3.185906 z" />
    <circle
       id="path32"
       style="fill:#1a1a1a;stroke:#000000;stroke-width:0.264583"
       cx="237.49678"
       cy="102.42854"
       r="0.042904027" />
    <path
       style="fill:#1a1a1a;stroke-width:0.264583"
       id="path42"
       d="m 1.5285146,85.902455 c 0.1149069,0.601398 0.1202686,1.220891 0.144381,1.831562 0.040309,0.976141 0.025082,1.954641 0.020485,2.931605 -0.013127,1.382037 -0.063585,2.763292 -0.093179,4.14501 -0.02978,1.582639 -0.031461,3.165631 -0.044443,4.748466 0.00241,1.732852 -0.00901,3.465652 -0.020177,5.198462 -0.024889,1.71172 -0.022391,3.42322 5.979e-4,5.13493 0.022246,1.58663 0.053712,3.17309 0.034061,4.75986 -0.022893,1.4242 -0.079375,2.84758 -0.1249809,4.27117 -0.03478,1.10162 -0.1077597,2.20125 -0.1919537,3.30001 -0.078422,0.95928 -0.1762713,1.91686 -0.29758227,2.87164 -0.10483098,0.82525 -0.24488872,1.64549 -0.36514812,2.46858 -0.0692997,0.47466 -0.12692475,0.95086 -0.1816141,1.42738 0,0 9.52832259,1.67766 9.52832259,1.67766 v 0 c 0.025233,-0.41545 0.052152,-0.83082 0.087182,-1.24558 0.07306,-0.85232 0.160277,-1.70339 0.27133,-2.55168 0.09528,-1.06106 0.215569,-2.11966 0.284601,-3.18309 0.06471,-1.22484 0.129552,-2.44936 0.132337,-3.6764 -0.01169,-1.4379 -0.02743,-2.87587 -0.0171,-4.31383 0.007,-1.64377 -0.0056,-3.2871 -0.04533,-4.93049 -0.03305,-1.66197 -0.09502,-3.32381 -0.07001,-4.98636 0.01053,-1.71526 0.0235,-3.43054 0.06909,-5.1453 0.02844,-1.543197 0.07339,-3.085919 0.131387,-4.628289 0.05027,-1.347976 0.09773,-2.696644 0.213583,-4.040987 0.07845,-1.06558 0.129565,-2.133047 0.216844,-3.19805 0.0239,-0.600107 0.02798,-1.209866 0.144381,-1.800236 z" />
    <path
       style="fill:#1a1a1a;stroke-width:0.264583"
       id="path43"
       d="m 1.7380399,91.689546 c 0.1097654,0.986255 0.2472522,1.965365 0.4677806,2.935433 0.4855336,1.763551 1.2686092,3.421359 1.9808982,5.09983 0.8325101,1.929611 1.62155,3.877571 2.398603,5.830061 0.8061192,2.0575 1.598377,4.1204 2.3889874,6.18391 0.7348844,1.86433 1.4294349,3.74392 2.1255759,5.62291 0.497255,1.34906 0.987264,2.70066 1.47049,4.0548 0.376495,1.00182 0.751616,2.00431 1.143262,3.00033 0.312457,0.86539 0.636164,1.72708 0.988832,2.5769 0.316122,0.83944 0.65812,1.66967 1.021387,2.48978 0.31669,0.73166 0.651052,1.4566 1.01724,2.16475 1.332141,2.9388 1.644723,3.11441 6.073542,4.24016 0.897142,0.22804 2.361487,-0.98772 2.963355,-1.40211 1.473492,-1.40236 2.089016,-3.3224 2.70245,-5.20234 0.753099,-2.24111 1.323721,-4.5378 1.893594,-6.83067 0.597807,-2.49658 1.233643,-4.98398 1.80916,-7.48583 0.493585,-2.16254 0.920982,-4.33935 1.324035,-6.52033 0.337349,-1.90058 0.664679,-3.80259 0.944042,-5.71263 0.236294,-1.60481 0.454808,-3.212107 0.632632,-4.824468 0.126428,-1.266089 0.269708,-2.529856 0.435726,-3.791323 0.02442,-0.187687 0.04887,-0.375375 0.07331,-0.563062 0,0 -9.354866,-1.560309 -9.354866,-1.560309 v 0 c -0.0014,0.145614 -0.0028,0.29123 -0.0042,0.436843 -0.08114,1.277337 -0.155071,2.554883 -0.237531,3.832093 -0.126177,1.549852 -0.26828,3.098368 -0.462919,4.641376 -0.19817,1.8265 -0.435455,3.64807 -0.721153,5.4631 -0.338009,2.1114 -0.700647,4.21912 -1.104862,6.31891 -0.4676,2.42028 -0.998133,4.82772 -1.65082,7.20559 -0.568775,2.03574 -1.186819,4.06076 -2.0241,6.00508 -0.198948,0.43063 -0.382107,0.85132 -0.610377,1.26616 -0.0336,0.0611 -0.265349,0.47804 -0.362019,0.50275 -0.174365,0.0446 0.800258,-1.12756 0.290533,-0.45507 0.40488,-0.2887 1.470955,-1.17971 2.057244,-1.00928 1.595316,0.46375 3.109717,1.21046 4.541663,2.05286 0.24062,0.14155 0.216983,0.51666 0.285955,0.78718 0.02359,0.0925 0.05967,0.22343 -0.01228,0.28622 -0.05214,0.0455 -0.0883,-0.10661 -0.132447,-0.15991 -0.325869,-0.57763 -0.680376,-1.13814 -1.012207,-1.71218 -0.338142,-0.69128 -0.662022,-1.3881 -0.957585,-2.09907 -0.321742,-0.83821 -0.705914,-1.64923 -1.045293,-2.48041 -0.390393,-1.0389 -0.844155,-2.05254 -1.292724,-3.06737 -0.594532,-1.33465 -1.11758,-2.70034 -1.731061,-4.02679 -0.792745,-1.83599 -1.603155,-3.66436 -2.336925,-5.5254 -0.817047,-2.04648 -1.597144,-4.10649 -2.35722,-6.17475 -0.750544,-1.97646 -1.549658,-3.93381 -2.309074,-5.906839 -0.510574,-1.364988 -1.063906,-2.724132 -1.417496,-4.13987 -0.106797,-0.423431 -0.182427,-0.849529 -0.0557,-1.279845 z" />
    <path
       id="path44"
       style="fill:#1a1a1a;stroke-width:0.264583"
       d="m 42.952416,107.75311 c -0.414644,0.004 -0.82926,0.022 -1.244885,0.0351 -0.91522,0.0565 -1.76751,0.324 -2.598291,0.69815 -1.029251,0.47545 -1.81535,1.27404 -2.50424,2.15284 -0.108104,0.16291 -0.215908,0.32594 -0.324011,0.48886 l 2.233972,1.38234 c -0.200215,0.15601 -0.396547,0.31721 -0.589111,0.48266 -0.97097,0.86747 -1.667553,1.95622 -2.25516,3.10524 -0.581113,1.18017 -0.976911,2.43382 -1.326534,3.69796 -0.319736,1.10949 -0.538579,2.24293 -0.712101,3.38326 -0.164978,1.11084 -0.192497,2.22755 -0.118339,3.34605 0.07292,1.24127 0.491029,2.3907 0.984953,3.51658 0.54683,1.18618 1.306033,2.23484 2.163175,3.21169 0.719487,0.79454 1.568168,1.45033 2.44998,2.05259 1.58012,1.01195 3.355408,1.89342 5.222937,2.19573 0.41719,0.0675 0.697769,0.0649 1.120345,0.0811 1.178317,0.0255 2.296896,-0.34008 3.380672,-0.76171 0.947973,-0.3768 1.819942,-0.90831 2.66237,-1.47743 1.054317,-0.72613 1.938633,-1.65752 2.76934,-2.62309 0.939557,-1.10014 1.588863,-2.37151 2.097029,-3.71554 0.486355,-1.3635 0.756434,-2.78746 0.943095,-4.21886 0.152836,-1.23043 0.147107,-2.47027 0.08888,-3.70624 -0.04006,-1.21404 -0.242945,-2.40842 -0.51418,-3.58944 -0.278873,-1.08574 -0.623405,-2.15439 -1.071252,-3.18224 -0.479057,-1.12445 -1.190225,-2.11087 -2.046387,-2.97501 -1.486911,-1.38967 -2.951695,-1.79109 -5.062223,-2.69699 -0.193879,-0.0832 -0.41216,-0.0902 -0.618567,-0.13384 -0.56411,-0.11943 -0.569648,-0.11809 -1.12758,-0.22531 -0.915408,-0.18225 -1.836581,-0.3367 -2.759521,-0.47594 -0.415265,-0.0427 -0.829724,-0.0526 -1.244369,-0.0486 z m 3.057695,8.81135 c 0.03358,-0.002 0.06626,-2.3e-4 0.09663,0.007 0.15511,0.0354 0.285979,0.15466 0.433048,0.2098 0.09621,0.11497 0.215537,0.21099 0.299207,0.33538 0.08399,0.12486 0.154783,0.25835 0.218074,0.39636 0.288817,0.0723 0.574796,0.15682 0.855245,0.25993 0.198043,0.0853 0.390343,0.15643 0.570508,0.27751 0.05717,0.0384 0.201944,0.14584 0.209806,0.16433 v 5.1e-4 5.2e-4 5.2e-4 5.1e-4 h -5.17e-4 l -5.16e-4,5.2e-4 h -5.17e-4 -5.17e-4 -5.17e-4 c -0.0027,-2.1e-4 -0.0073,-0.002 -0.01447,-0.005 -0.62369,-0.27756 -1.157824,-0.50313 -1.612305,-0.68626 0.09543,0.21 0.173807,0.42994 0.256832,0.64389 0.01853,1e-5 0.03728,1.7e-4 0.05581,5.2e-4 v 0.004 c 0.02542,4.2e-4 0.05042,0.001 0.07441,0.003 0.0211,-0.0103 0.0433,-0.0199 0.06718,-0.0289 0.03869,-0.0147 0.08093,-0.0163 0.12144,-0.0253 0.01823,-5e-4 0.03654,-0.002 0.05478,-0.003 0.01823,-8.8e-4 0.03656,-10e-4 0.05478,0 0.116406,0.005 0.229232,0.0423 0.337447,0.0822 0.116555,0.0481 0.231952,0.0987 0.340548,0.16329 0.100175,0.0643 0.196195,0.13489 0.291455,0.20619 0.08792,0.0702 0.175022,0.14083 0.258382,0.21653 0.112076,0.10224 0.20982,0.21657 0.28112,0.3514 0.05046,0.0926 0.09828,0.1865 0.145727,0.2806 0.0648,0.11725 0.138774,0.22946 0.195854,0.35088 0.05928,0.13548 0.106566,0.27502 0.157096,0.41393 0.05898,0.15047 0.1146,0.3026 0.15968,0.45785 0.0331,0.12693 0.06497,0.25473 0.08785,0.38396 0.02804,0.14562 0.05269,0.29205 0.0615,0.44028 0.0059,0.13648 0.0037,0.27322 0.0036,0.4098 -4e-4,0.1375 -9e-4,0.27489 -0.0031,0.41237 -0.0026,0.13546 -0.0065,0.27104 -0.01654,0.40618 -0.0094,0.11957 -0.02524,0.23841 -0.03204,0.35812 -0.0089,0.13762 -0.02159,0.27495 -0.04237,0.41134 -0.02092,0.15354 -0.03207,0.30873 -0.06563,0.46044 -0.03038,0.15669 -0.05824,0.31381 -0.0925,0.46974 -0.03619,0.15519 -0.07586,0.3096 -0.126091,0.46095 -0.04007,0.12883 -0.08156,0.25714 -0.12144,0.38603 -0.04388,0.12601 -0.08383,0.25293 -0.128157,0.37878 -0.04546,0.11647 -0.09472,0.23113 -0.150379,0.34314 -0.05573,0.11676 -0.117187,0.23132 -0.196887,0.33382 -0.07102,0.095 -0.143062,0.18996 -0.224792,0.27596 -0.07169,0.07 -0.139918,0.14327 -0.216008,0.20877 -0.05874,0.0523 -0.120096,0.102 -0.176216,0.1571 -0.06349,0.0521 -0.106165,0.12596 -0.163815,0.18396 -0.06351,0.0773 -0.12288,0.15778 -0.1757,0.24288 -0.0815,0.12192 -0.158024,0.24857 -0.262516,0.35295 -0.11176,0.1031 -0.235029,0.1918 -0.368453,0.2651 -0.123546,0.0573 -0.251537,0.1034 -0.384989,0.1323 -0.103321,0.0207 -0.207388,0.0395 -0.312643,0.0465 -0.06832,0.006 -0.136168,0.0147 -0.203088,0.03 -0.108926,0.0227 -0.219216,0.0411 -0.330212,0.0501 -0.09976,0.01 -0.199223,0.0258 -0.299724,0.0238 -0.08,-2e-5 -0.159778,1.1e-4 -0.239778,0 -0.08803,-1.2e-4 -0.176037,-3.1e-4 -0.264067,-0.001 -0.09248,-0.001 -0.185082,-0.002 -0.277502,-0.006 -0.116421,-0.005 -0.232803,-0.0117 -0.348299,-0.0279 -0.01105,-0.002 -0.02202,-0.003 -0.03307,-0.005 -0.0013,4.6e-4 -0.0028,5.8e-4 -0.0041,0.001 1.538571,0.61169 2.290275,0.83283 2.282548,0.88315 -9.9e-5,2.8e-4 -8.82e-4,0.001 -0.001,0.002 -0.01724,0.022 -0.221796,0.003 -0.610815,-0.0295 -0.511209,-0.12955 -1.002359,-0.31302 -1.495516,-0.49816 -0.169163,-0.0792 -0.33488,-0.16414 -0.49196,-0.26045 -0.138357,0.0349 -0.279411,0.0607 -0.42323,0.0734 -0.04785,-0.002 -0.277579,0.0218 -0.242879,-0.0992 0.01048,-0.0366 0.05517,-0.0586 0.06201,-0.0961 0.01019,-0.0558 -0.07156,-0.10283 -0.05839,-0.15968 -0.01571,-0.0307 -0.03008,-0.0562 -0.04393,-0.078 -0.04938,-0.0227 -0.09914,-0.0447 -0.148828,-0.0667 -0.100417,-0.0458 -0.201976,-0.09 -0.296106,-0.14831 -0.06867,-0.0454 -0.139239,-0.0875 -0.207739,-0.13333 -0.09835,-0.0618 -0.193575,-0.12924 -0.273885,-0.21394 -0.05516,-0.0577 -0.111664,-0.11493 -0.162264,-0.17673 -0.06099,-0.0712 -0.117916,-0.14759 -0.155546,-0.23409 -0.03489,-0.0655 -0.06676,-0.13249 -0.08992,-0.20309 -0.03471,-0.0751 -0.0672,-0.15095 -0.101286,-0.22635 -0.03723,-0.0855 -0.07195,-0.17238 -0.09974,-0.26148 -0.02677,-0.0769 -0.05204,-0.15438 -0.0708,-0.23358 -0.02027,-0.0632 -0.03805,-0.12718 -0.06615,-0.18758 -0.03046,-0.0834 -0.06715,-0.1648 -0.09405,-0.2496 -0.02981,-0.0966 -0.05472,-0.19424 -0.07131,-0.29404 -0.02474,-0.10991 -0.05211,-0.21973 -0.06201,-0.33228 -0.01193,-0.10606 -0.01909,-0.21204 -0.01499,-0.31884 5e-4,-0.0959 0.0011,-0.19194 0.0031,-0.28784 0.0026,-0.10009 0.0056,-0.20002 0.01499,-0.29972 0.0079,-0.0823 0.02117,-0.16441 0.02377,-0.24701 0.0037,-0.10862 0.0091,-0.21738 0.02481,-0.32505 0.01516,-0.0931 0.03703,-0.1848 0.05426,-0.2775 0.01918,-0.0913 0.04521,-0.18062 0.0646,-0.27182 0.02059,-0.0866 0.02927,-0.17565 0.04186,-0.26355 0.01629,-0.10465 0.03115,-0.20937 0.05219,-0.31316 0.02348,-0.0901 0.05378,-0.17742 0.0832,-0.26562 0.02684,-0.0671 0.03178,-0.14118 0.05581,-0.20928 0.027,-0.091 0.04791,-0.18419 0.08837,-0.27079 0.03336,-0.0888 0.07176,-0.1756 0.103353,-0.2651 0.03348,-0.0842 0.06996,-0.16678 0.108004,-0.24908 0.03475,-0.0842 0.06855,-0.169 0.104386,-0.2527 0.0331,-0.077 0.07021,-0.15219 0.09922,-0.23099 0.03454,-0.0752 0.06177,-0.15384 0.102319,-0.22634 0.03948,-0.0771 0.08299,-0.15175 0.12144,-0.22945 0.04541,-0.0819 0.08983,-0.16429 0.140043,-0.24339 0.06165,-0.0948 0.122963,-0.18975 0.207223,-0.26665 0.06344,-0.0602 0.12643,-0.12142 0.19482,-0.17622 0.07596,-0.0669 0.153904,-0.13147 0.234094,-0.19327 0.07663,-0.052 0.154657,-0.1024 0.233577,-0.1509 0.08417,-0.0516 0.170246,-0.10032 0.257866,-0.14572 0.09345,-0.0552 0.189738,-0.10681 0.291455,-0.14521 0.06499,-0.0258 0.131767,-0.047 0.195337,-0.076 0.08194,-0.0405 0.164633,-0.0794 0.248563,-0.11575 0.0852,-0.037 0.171563,-0.0711 0.259933,-0.0997 0.08177,-0.0301 0.163169,-0.0611 0.244429,-0.0925 0.03876,-0.0153 0.07799,-0.0301 0.117306,-0.0439 l -0.320394,-1.31569 c 0.197128,0.0368 0.392633,0.0834 0.585494,0.13591 0.362572,0.0672 0.72507,0.13747 1.083138,0.2248 -0.836518,-0.33503 -1.393902,-0.52312 -1.734261,-0.62942 l -0.04031,-0.16589 c 0.137781,-0.016 0.304776,-0.0442 0.491443,-0.0951 0.09252,-0.004 0.203121,-0.0367 0.303858,-0.0413 z m 0.979268,0.93173 c 0.02439,0.01 0.04903,0.0194 0.0739,0.0294 -0.002,-0.004 -0.0042,-0.009 -0.0062,-0.0129 -0.02265,-0.006 -0.04501,-0.011 -0.0677,-0.0165 z m -2.497522,10.82879 c 0.10706,-0.027 0.212407,-0.0599 0.316777,-0.0966 -0.0025,-0.001 -0.0047,-0.002 -0.0072,-0.003 -0.0797,-0.0112 -0.159704,-0.0215 -0.239779,-0.03 -0.118341,-0.0182 -0.234712,-0.0434 -0.350883,-0.0724 -0.0049,-0.001 -0.0096,-0.002 -0.01447,-0.004 0.09375,0.0745 0.192801,0.14213 0.295589,0.20515 z" />
    <path
       style="fill:#1a1a1a;stroke-width:0.264583"
       id="path45"
       d="m 68.750952,90.648125 c 0.216238,0.931153 0.212711,1.901251 0.258053,2.852343 0.04691,1.609781 0.139097,3.217542 0.212082,4.826214 0.07899,1.770468 0.175943,3.539838 0.304525,5.307398 0.151892,1.95414 0.345017,3.90484 0.507074,5.85812 0.186264,2.17798 0.304856,4.36105 0.404196,6.54449 0.102052,2.02669 0.18201,4.05433 0.282705,6.08107 0.07428,1.54086 0.1134,3.08305 0.168801,4.62461 0.03609,1.22458 0.06777,2.44944 0.07654,3.67455 0.0021,0.91815 -0.0043,1.83629 -0.0093,2.75441 -0.01106,0.67018 0.008,1.34105 -0.01955,2.01083 -0.02127,0.31936 -0.0093,0.16638 -0.03494,0.45897 0,0 9.741948,0.93246 9.741948,0.93246 v 0 c -0.03568,-0.28838 -0.01865,-0.13677 -0.04997,-0.45497 -0.04892,-0.6884 -0.05076,-1.37944 -0.092,-2.06839 -0.04579,-0.94439 -0.09841,-1.88841 -0.153003,-2.83234 -0.06867,-1.27036 -0.123767,-2.54149 -0.208217,-3.81099 -0.0984,-1.59115 -0.239744,-3.17912 -0.3811,-4.76694 -0.172424,-1.99472 -0.3639,-3.98758 -0.478563,-5.98689 -0.129918,-2.22143 -0.233606,-4.44355 -0.329213,-6.66669 -0.116737,-1.94328 -0.248028,-3.88548 -0.356134,-5.8293 -0.107937,-1.69906 -0.199382,-3.39904 -0.278175,-5.099714 -0.04551,-1.5157 -0.08772,-3.033403 -0.01762,-4.549103 0.0449,-0.932111 0.03848,-1.885346 0.258054,-2.796355 z" />
    <path
       id="path47"
       style="fill:#1a1a1a;stroke-width:0.264583"
       d="m 122.02832,105.39363 c -0.61739,0.018 -1.23505,0.0707 -1.84795,0.12868 -0.96458,0.0492 -1.92572,0.13491 -2.88871,0.2067 -0.93527,0.0813 -1.82022,0.34633 -2.68511,0.69918 -0.97593,0.32542 -1.77159,0.93146 -2.50011,1.63918 -0.16431,0.20582 -0.32816,0.41172 -0.49247,0.61753 l 0.50126,0.35864 c -0.6045,0.46229 -1.16156,0.98785 -1.68775,1.54616 -1.05339,1.10722 -1.71122,2.46986 -2.2469,3.88193 -0.5043,1.41093 -0.76166,2.88327 -0.91157,4.36873 -0.13346,1.53315 0.0791,3.04917 0.42478,4.53874 0.37598,1.55811 1.08023,2.85307 2.03554,4.12378 0.97416,1.19917 2.2467,2.0647 3.56205,2.84427 1.71032,0.97878 3.5201,1.73351 5.33611,2.50992 0.24308,0.10392 0.5041,0.15954 0.75758,0.23461 0.42082,0.12462 1.05253,0.29426 1.47898,0.41031 1.50083,0.44932 2.92747,0.58262 4.48499,0.47129 1.76213,-0.24984 3.02612,-0.91718 4.41576,-1.98541 1.10263,-0.91519 1.91158,-2.07912 2.59415,-3.32434 0.6226,-1.19156 0.9908,-2.48444 1.29295,-3.78737 0.29048,-1.21914 0.44278,-2.46253 0.51366,-3.71191 0.0733,-1.1847 -0.0396,-2.36326 -0.19224,-3.53622 -0.14026,-0.98711 -0.35349,-1.95855 -0.62321,-2.91765 -0.30456,-1.10381 -0.76102,-2.15438 -1.29243,-3.1657 -0.48043,-0.92186 -1.0499,-1.78645 -1.67845,-2.61276 -1.6207,-1.93471 -3.2031,-2.36573 -5.80843,-3.37809 -0.21744,-0.0845 -0.46335,-0.0541 -0.69505,-0.0811 -0.61291,-0.0805 -1.23005,-0.0971 -1.84743,-0.0791 z m -0.11576,8.10597 -5.1e-4,5.1e-4 c 0.37348,-0.0155 0.77555,0.55963 0.98598,0.82063 0.0585,0.0787 0.11787,0.15714 0.17674,0.23564 0.0265,10e-6 0.0526,-1.1e-4 0.0791,0 0.62016,0.0588 1.03556,0.0914 1.53841,0.48783 0.29183,1.0382 0.19877,0.62009 -1.56476,-0.41755 0.27651,0.37048 0.54352,0.74721 0.72036,1.17926 0.23321,0.65867 0.46859,1.32015 0.57981,2.01279 0.16727,0.67979 0.31138,1.37321 0.34107,2.0743 -2.5e-4,0.80893 -0.0424,1.6221 -0.21446,2.41483 -0.14796,0.65369 -0.3048,1.31437 -0.62063,1.911 -0.17639,0.29803 -0.37621,0.65646 -0.70539,0.80615 -0.2242,0.0886 -0.43827,-0.004 -0.65112,-0.10645 -0.80417,-0.20078 -1.59862,-0.44041 -2.38177,-0.71107 3.39674,1.51125 1.37086,0.65258 0.30335,0.17622 -0.23602,-0.10875 -0.47215,-0.21781 -0.70797,-0.32711 -0.19808,-0.0749 -0.34304,-0.13547 -0.64182,-0.27906 -0.11266,-0.0541 -0.37966,-0.18779 -0.47698,-0.23978 0.3731,0.17219 0.74576,0.34592 1.1188,0.51884 0.1043,0.0394 0.22371,0.0828 0.38757,0.14469 0.006,0.002 0.0112,0.004 0.0171,0.006 -0.42125,-0.18742 -0.92629,-0.4114 -1.52652,-0.67696 -0.0203,-0.009 -0.0307,-0.0132 -0.0331,-0.0134 0.002,0.002 0.0146,0.009 0.0357,0.0207 -0.14745,-0.068 -0.29484,-0.13545 -0.44235,-0.20308 -0.49893,-0.21285 -0.89486,-0.51575 -1.1436,-1.01131 -0.30831,-0.62194 -0.48509,-1.29531 -0.52194,-1.99006 0.0101,-0.81467 0.10238,-1.62022 0.39895,-2.38642 0.18619,-0.48793 0.39563,-0.95507 0.79375,-1.31 0.26047,-0.21751 0.5363,-0.40442 0.84439,-0.53123 0.003,-0.004 0.006,-0.007 0.009,-0.0108 0.0196,-0.0228 0.0406,-0.0453 0.062,-0.0667 -0.70752,-0.31667 -1.41092,-0.64385 -2.11925,-0.9586 0.11574,0.0297 0.0652,0.0216 0.14883,0.032 l 1.82263,-1.47071 1.00769,0.72088 c -0.055,0.0744 -0.11033,0.14887 -0.16537,0.22324 -0.35883,0.42692 -0.20921,0.27292 0.20826,0.18087 0.38813,0.0245 0.77198,-0.0465 1.15807,-0.0703 0.7551,-0.0806 1.5142,-0.12673 2.27376,-0.12919 -0.43982,-0.2547 -0.97604,-0.54423 -1.62781,-0.85628 -0.002,-7.5e-4 -0.005,-0.003 -0.007,-0.005 -2.8e-4,-1.8e-4 -7.8e-4,-3.9e-4 -0.001,-5.2e-4 l -5.2e-4,-5.1e-4 v -5.2e-4 -5.2e-4 -5.1e-4 l -5.2e-4,-5.2e-4 v -5.2e-4 -5.1e-4 -5.2e-4 -5.2e-4 l 5.2e-4,-5.1e-4 5.2e-4,-5.2e-4 5.1e-4,-5.2e-4 v -5.1e-4 l 5.2e-4,-5.2e-4 v -5.2e-4 c 0.0142,-0.0168 0.10165,-0.0343 0.13694,-0.0481 0.12155,-0.0472 0.25001,-0.0787 0.36794,-0.13642 0.012,-0.002 0.0241,-0.003 0.0362,-0.003 z m 1.21492,1.12706 c -0.0176,-0.0236 -0.0351,-0.0468 -0.0527,-0.0703 -0.0225,0 -0.0453,-7e-5 -0.0677,0 0.041,0.0237 0.0811,0.0471 0.12041,0.0703 z m -3.89486,1.37304 c -0.0124,0.003 -0.025,0.007 -0.0372,0.0103 0.007,-9.4e-4 0.0135,-0.002 0.0201,-0.003 0.006,-6.7e-4 0.0109,-0.001 0.0165,-0.002 1.4e-4,-0.002 3.6e-4,-0.003 5.1e-4,-0.005 z m 0.1416,0.33848 0.015,0.006 c -10e-6,-10e-4 -10e-6,-0.002 0,-0.003 z" />
    <path
       style="fill:#1a1a1a;stroke-width:0.264583"
       id="path48"
       d="m 141.00872,105.81018 c 0.12535,0.792 0.0402,1.58801 -0.0183,2.38177 -0.10326,1.41939 -0.25903,2.83431 -0.46864,4.24177 -0.24895,1.58194 -0.48986,3.16496 -0.71379,4.75066 -0.20362,1.58023 -0.4395,3.15556 -0.67587,4.7311 -0.19672,1.32521 -0.4005,2.64906 -0.62361,3.97008 -0.1626,0.94363 -0.30682,1.89021 -0.43497,2.83909 -0.0775,0.65824 -0.18318,1.31256 -0.27632,1.96865 -0.0449,0.38307 -0.11197,0.76289 -0.1968,1.13898 -0.0991,0.39746 -0.21042,0.79128 -0.33684,1.18086 -0.23043,0.78751 -0.19582,0.23444 0.0242,-0.0693 0.38136,-0.52663 0.5958,-1.49396 1.24598,-1.50084 2.44354,-0.0259 4.79592,0.94101 7.19388,1.41151 -0.20687,0.33052 0.73938,1.30758 0.49483,1.92242 -0.0312,0.0784 -0.12045,-0.12808 -0.14195,-0.20971 -0.0418,-0.15856 -0.076,-0.50011 -0.0947,-0.65791 -0.0559,-0.88152 0.0213,-1.76412 0.14533,-2.6364 0.11645,-0.90212 0.36234,-1.77648 0.63361,-2.642 0.31707,-0.95716 0.71504,-1.88462 1.12861,-2.8033 0.42616,-0.93698 0.87672,-1.86246 1.3599,-2.77134 0.37563,-0.64269 0.6672,-1.35385 1.1374,-1.93677 0.25183,-0.3311 0.5628,-0.61328 0.89597,-0.86046 0.25015,-0.19863 0.53052,-0.28179 0.8311,-0.36407 0.31394,-0.0444 0.62681,-0.0889 0.94333,-0.11428 0.41617,-0.0425 0.0456,-0.037 0.30659,0.0213 0.2395,0.0535 0.22235,0.0164 0.29154,0.2531 0.083,0.14315 0.0198,0.21123 0.0246,0.30678 0.004,0.0772 0.0972,0.18142 0.13609,0.23348 -1.14226,-0.53605 -2.28453,-1.07211 -3.4268,-1.60816 0.0144,-0.0347 0.0101,-0.0863 0.0431,-0.10408 0.004,-0.002 0.24654,0.0255 0.25247,0.0251 0.0304,-0.002 0.0566,-0.0303 0.087,-0.0282 0.0798,0.006 0.15185,0.0506 0.22921,0.0708 0.27743,-0.036 0.63144,0.73905 0.72197,0.92991 0.28128,0.6584 0.42749,1.35948 0.56528,2.0586 0.11798,0.67916 0.13759,1.36794 0.15759,2.05515 0.0106,0.60296 -0.0898,1.20065 -0.18514,1.79395 -0.10878,0.69756 -0.2663,1.38561 -0.42502,2.07305 -0.18088,0.73149 -0.35644,1.46458 -0.51502,2.20127 -0.18642,0.82055 -0.30195,1.65463 -0.38418,2.49135 -0.082,0.88002 -0.12976,1.76289 -0.17886,2.64525 -0.0446,0.84991 -0.0726,1.70218 -0.0594,2.55332 0.009,0.61863 0.0828,1.23258 0.11189,1.85037 0.004,0.0777 0.007,0.15532 0.0111,0.23298 0,0 9.8567,-0.43056 9.8567,-0.43056 v 0 c -0.0139,-0.007 -0.0279,-0.0146 -0.0418,-0.0219 -0.16234,-0.3219 -0.15199,-0.68914 -0.28235,-1.02126 -0.0761,-0.5944 -0.11207,-1.18873 -0.12074,-1.78922 0.0306,-0.751 0.0682,-1.50163 0.14728,-2.24943 0.0673,-0.59243 0.13581,-1.18511 0.24866,-1.77102 0.13763,-0.67692 0.2892,-1.35098 0.43689,-2.02572 0.20148,-0.82683 0.37219,-1.6611 0.52575,-2.49808 0.17997,-0.98377 0.3198,-1.97675 0.37205,-2.97625 0.0226,-1.03355 -0.0282,-2.06753 -0.14847,-3.09451 -0.13112,-1.12303 -0.34397,-2.23665 -0.62557,-3.33182 -0.30166,-1.12515 -0.65246,-2.23759 -1.21749,-3.26284 -0.58417,-0.96315 -1.26616,-1.84383 -2.13375,-2.57213 -2.79243,-1.33324 -3.80491,-2.28846 -6.52145,-2.16572 -0.93301,0.0842 -1.84882,0.25958 -2.73993,0.55388 -0.82205,0.26453 -1.62659,0.58379 -2.36923,1.03009 -0.80347,0.49573 -1.57028,1.052 -2.23799,1.72335 -0.68488,0.69571 -1.30525,1.45027 -1.82304,2.28012 -0.52423,0.86447 -0.99253,1.75981 -1.41042,2.68075 -0.49623,1.02304 -0.97502,2.05426 -1.44041,3.09171 -0.513,1.14453 -1.01261,2.29695 -1.41723,3.48517 -0.41162,1.22499 -0.75912,2.47312 -0.96898,3.74993 -0.19435,1.23502 -0.33006,2.4761 -0.39408,3.72516 -0.0398,0.75144 -0.0873,1.51282 -0.0458,2.2653 0.0147,0.26736 -0.005,0.54177 0.0633,0.80079 0.16626,0.63451 0.42307,1.24176 0.6346,1.86265 2.43739,0.50423 4.82321,1.52786 7.31215,1.51271 0.87775,-0.005 1.73343,-2.27798 1.97981,-3.13872 0.1722,-0.54075 0.34393,-1.08158 0.47144,-1.6351 0.1725,-0.66915 0.31134,-1.34895 0.36079,-2.03951 0.0643,-0.69827 0.15785,-1.39377 0.20635,-2.09319 0.0606,-0.89069 0.13116,-1.78069 0.21804,-2.66923 0.12969,-1.32373 0.26048,-2.64747 0.40394,-3.9697 0.20484,-1.58098 0.44653,-3.15682 0.66703,-4.73564 0.21372,-1.5484 0.43956,-3.09499 0.69438,-4.63723 0.24065,-1.46535 0.46298,-2.93397 0.72578,-4.39546 0.15363,-0.86811 0.28201,-1.75101 0.52955,-2.59681 z" />
    <path
       id="path49"
       style="fill:#1a1a1a;stroke-width:0.264583"
       d="m 121.01701,112.14309 c -0.14456,0.007 -0.288,0.0325 -0.43202,0.0475 -0.14606,0.0198 -0.29144,0.0438 -0.43356,0.0837 -0.12712,0.036 -0.25339,0.0765 -0.37827,0.11834 -0.12904,0.0518 -0.25999,0.0984 -0.37931,0.17156 -0.0971,0.0518 -0.19523,0.10118 -0.29094,0.15555 -0.11441,0.0646 -0.23094,0.12521 -0.34571,0.18914 -0.0972,0.0525 -0.19396,0.1049 -0.29766,0.14417 -0.1524,0.0709 -0.30028,0.15044 -0.44751,0.23151 -0.16168,0.0841 -0.32384,0.16844 -0.49403,0.23461 -0.19344,0.0783 -0.3903,0.14855 -0.59376,0.19637 -0.18073,0.0489 -0.3639,0.0882 -0.54622,0.13075 -0.0997,0.0206 -0.20218,0.0344 -0.30076,0.0599 -0.0302,0.008 -0.0592,0.0193 -0.0894,0.0269 -0.0206,0.005 -0.0417,0.007 -0.0625,0.0108 l 1.5689,2.51406 c 0.003,-0.004 0.006,-0.009 0.009,-0.0129 0.0184,-0.0181 0.22541,-0.0852 0.25735,-0.0966 0.19537,-0.0655 0.38969,-0.13351 0.58343,-0.20361 0.12057,-0.0486 0.24074,-0.0983 0.3607,-0.14831 0.0373,-0.0319 0.0766,-0.0618 0.11937,-0.0858 0.048,-0.0279 0.0975,-0.0531 0.14986,-0.0718 0.0525,-0.0179 0.10537,-0.0339 0.15917,-0.0475 0.0652,-0.0182 0.13096,-0.0344 0.19585,-0.0537 5.3e-4,-1.5e-4 10e-4,-3.6e-4 0.002,-5.1e-4 0.12196,-0.052 0.24324,-0.10568 0.3638,-0.16072 0.13184,-0.0607 0.26849,-0.10907 0.40256,-0.16433 0.14704,-0.0664 0.28678,-0.14711 0.42995,-0.22117 0.10072,-0.0522 0.20298,-0.10441 0.30851,-0.14676 0.0861,-0.0306 0.16707,-0.0742 0.25373,-0.10387 0.005,-7.4e-4 0.029,-0.005 0.0377,-0.003 2.6e-4,1.1e-4 8.2e-4,3.9e-4 0.001,5.2e-4 v 5.2e-4 h 5.1e-4 v 5.1e-4 l 5.2e-4,5.2e-4 c 5e-5,2.4e-4 -2e-5,10e-4 0,0.002 0,0.002 -5.1e-4,0.004 -5.2e-4,0.006 v 5.2e-4 h 5.2e-4 v 5.2e-4 h 5.2e-4 c 0.0354,-0.005 0.0572,-0.0283 0.0941,-0.0233 0.007,2.7e-4 0.0135,0.003 0.0201,0.001 0.0755,-0.0186 0.0866,-0.034 0.16588,-0.0274 0.073,0.001 0.14616,-1.6e-4 0.21911,-0.002 0.0626,0.008 0.13017,-0.0132 0.19224,-0.003 0.007,10e-4 0.0106,0.008 0.016,0.0119 0.0125,10e-4 0.0252,0.003 0.0377,0.004 0.0171,5.3e-4 0.0343,-10e-4 0.0512,0.002 0.0104,0.002 0.0196,0.007 0.0295,0.0108 l 0.0512,0.006 c 0.0419,0.004 0.0822,0.003 0.12247,0.009 0.0158,0.01 0.0311,0.0213 0.0481,0.0289 0.007,0.003 0.0165,-4.5e-4 0.0238,0.002 0.0532,0.0223 0.1,0.059 0.154,0.0806 0.0229,0.0153 0.0396,0.0263 0.0512,0.0341 -0.004,-0.003 -0.008,-0.006 -0.009,-0.008 v -5.2e-4 h 5.2e-4 5.2e-4 c 0.003,6.6e-4 0.0139,0.006 0.0388,0.0196 0.0171,0.01 0.0312,0.0245 0.0491,0.0326 0.004,0.002 0.008,0.003 0.01,0.003 2.4e-4,-1e-5 0.001,2e-5 0.002,0 h 5.1e-4 l 5.2e-4,-5.2e-4 h 5.2e-4 l 5.1e-4,-5.2e-4 h 5.2e-4 v -5.1e-4 l 5.2e-4,-5.2e-4 c 0.001,-0.002 0.002,-0.004 0.003,-0.006 l 5.2e-4,-5.2e-4 5.1e-4,-5.2e-4 5.2e-4,-5.1e-4 h 5.2e-4 l 5.1e-4,-5.2e-4 h 5.2e-4 c 0.005,-7.5e-4 0.0182,0.004 0.0501,0.0258 0.002,-0.002 0.005,-0.006 0.007,-0.007 l 5.2e-4,-5.1e-4 h 5.2e-4 5.1e-4 5.2e-4 5.2e-4 5.1e-4 c 0.0154,0.006 0.0813,0.0604 0.10594,0.0491 2.2e-4,-9e-5 8.3e-4,-4e-4 0.001,-5.2e-4 h 5.2e-4 l 5.2e-4,-5.1e-4 5.1e-4,-5.2e-4 v -5.2e-4 l 5.2e-4,-5.1e-4 c 8.8e-4,-0.002 9.9e-4,-0.006 0.001,-0.009 -0.20652,-0.089 -0.38726,-0.16935 -0.53485,-0.23616 0.0112,0.002 0.0223,0.004 0.0336,0.008 0.0922,0.009 0.17201,0.0574 0.2589,0.0827 0.0311,-0.003 0.0435,0.0276 0.0672,0.0377 0.0189,0.008 0.0402,0.009 0.0594,0.016 0.0175,0.007 0.0576,0.0334 0.0749,0.0408 0.0185,0.008 0.0378,0.0131 0.0568,0.0196 0.0348,0.0222 0.0717,0.0386 0.10181,0.0672 0.006,0.006 0.0222,0.0203 0.0253,0.0248 h 5.1e-4 v 5.2e-4 h -5.1e-4 -5.2e-4 -5.2e-4 c -2.5e-4,-9e-5 -7.1e-4,-3.8e-4 -0.001,-5.2e-4 -0.0194,-0.008 -0.0383,-0.0162 -0.0574,-0.0243 0.001,5.7e-4 0.002,0.001 0.003,0.002 0.0265,0.0234 0.0481,0.0517 0.0744,0.0755 0.0344,-0.0121 0.052,0.0343 0.0713,0.0522 2.5e-4,2.5e-4 0.001,8.3e-4 0.002,0.001 0.004,0.002 0.01,10e-4 0.0139,0.004 0.0132,0.007 0.0175,0.0124 0.0196,0.0139 h 5.1e-4 5.2e-4 5.2e-4 v -5.1e-4 l 5.1e-4,-5.2e-4 5.2e-4,-5.2e-4 c 0.001,-0.002 0.003,-0.005 0.006,-0.01 0.006,0.004 0.012,0.007 0.0181,0.0109 1.3e-4,-1.9e-4 4e-4,-10e-4 5.2e-4,-0.002 9e-4,-0.002 0.002,-0.005 0.004,-0.007 v -5.2e-4 l 5.1e-4,-5.1e-4 h 5.2e-4 v -5.2e-4 h 5.2e-4 5.1e-4 5.2e-4 c 0.008,0.002 0.0118,0.0126 0.0196,0.0155 v 5.2e-4 h 5.1e-4 l 5.2e-4,-5.2e-4 h 5.2e-4 l 5.1e-4,-5.1e-4 c 10e-4,-8.7e-4 0.003,-0.003 0.004,-0.004 l 5.1e-4,-5.2e-4 5.2e-4,-5.1e-4 h 5.2e-4 5.2e-4 l 5.1e-4,5.1e-4 c 0.0152,0.009 0.0204,0.0149 0.0217,0.0181 l 5.1e-4,5.2e-4 v 5.1e-4 5.2e-4 l -5.1e-4,5.2e-4 v 5.1e-4 5.2e-4 h -5.2e-4 l -5.2e-4,5.2e-4 v 5.1e-4 c 8.3e-4,1.7e-4 0.004,2.2e-4 0.0108,5.2e-4 0.0492,0.0853 0.10806,0.16181 0.15607,0.24856 0.0374,0.0318 0.0553,0.0778 0.0827,0.11731 0.004,0.006 0.012,0.009 0.0165,0.0145 0.0307,0.0417 0.031,0.051 0.0331,0.0553 v 5.2e-4 l 5.2e-4,5.2e-4 c 0.002,0.002 0.006,0.004 0.0176,0.0108 9.3e-4,-0.0122 9.9e-4,-0.0172 0.001,-0.0186 6.9e-4,0.002 0.004,0.0123 0.016,0.0134 h 5.2e-4 5.1e-4 l 5.2e-4,-5.2e-4 5.2e-4,-5.1e-4 c 0.001,-0.002 8.8e-4,-0.008 0.002,-0.01 l 5.1e-4,-5.2e-4 v -5.2e-4 h 5.2e-4 v 5.2e-4 h 5.2e-4 c 0.0113,0.0133 0.0671,0.10799 0.0734,0.11989 0.003,0.007 0.006,0.011 0.008,0.0129 l 5.2e-4,5.2e-4 5.1e-4,5.1e-4 h 5.2e-4 5.2e-4 5.1e-4 l 5.2e-4,-5.1e-4 5.2e-4,-5.2e-4 v -5.2e-4 c 0.002,-0.004 0.001,-0.0159 0.002,-0.0191 v -5.1e-4 h 5.2e-4 5.2e-4 c 0.0274,0.0333 0.0484,0.10584 0.0801,0.12867 0.007,0.01 0.0119,0.022 0.0212,0.03 h 5.2e-4 5.2e-4 5.1e-4 v -5.1e-4 l 5.2e-4,-5.2e-4 5.2e-4,-5.2e-4 c 5.3e-4,-9e-4 10e-4,-0.003 0.002,-0.004 l 5.2e-4,-5.1e-4 5.2e-4,-5.2e-4 h 5.1e-4 5.2e-4 5.2e-4 c 0.009,0.007 0.0107,0.0194 0.0191,0.0264 h 5.1e-4 v 5.1e-4 h 5.2e-4 5.2e-4 v -5.1e-4 h 5.1e-4 l 5.2e-4,-5.2e-4 5.2e-4,-5.2e-4 c 7.3e-4,-6.7e-4 0.002,-0.002 0.003,-0.003 h 5.2e-4 l 5.2e-4,-5.2e-4 h 5.1e-4 5.2e-4 5.2e-4 c 0.0247,0.0373 0.0303,0.0512 0.0305,0.0558 v 5.2e-4 h -5.1e-4 v 5.2e-4 5.1e-4 h -5.2e-4 v 5.2e-4 h -5.2e-4 -5.1e-4 -5.2e-4 v 5.2e-4 c 8.6e-4,0.001 0.004,0.004 0.0134,0.0124 0.0488,0.0779 0.0997,0.14963 0.14211,0.23151 0.0497,0.0536 0.0636,0.13145 0.11524,0.18448 l 2.62619,-1.20457 c 7.2e-4,0.006 0.002,0.01 0.004,0.0119 l 5.1e-4,5.2e-4 5.2e-4,5.2e-4 c 1.9e-4,1.3e-4 0.001,4e-4 0.002,5.1e-4 l 5.2e-4,5.2e-4 h 5.1e-4 l 5.2e-4,5.2e-4 c 2.2e-4,2e-5 0.001,-1e-5 0.002,0 h 5.2e-4 c 0.01,-0.001 0.0233,-0.0181 0.0233,-0.0253 -10e-6,-0.002 6e-5,-0.003 0,-0.005 l -0.0336,0.015 c -9.5e-4,-0.008 -1.4e-4,-0.0209 0.003,-0.0382 -1.3e-4,1.9e-4 -9.1e-4,0.001 -0.001,0.002 -0.001,0.003 -0.003,0.007 -0.004,0.009 v 5.2e-4 h -5.2e-4 v 5.2e-4 h -5.2e-4 -5.1e-4 v -5.2e-4 h -5.2e-4 c -0.0117,-0.0115 -0.0143,-0.0303 -0.0253,-0.0424 v -5.2e-4 h -5.2e-4 -5.1e-4 -5.2e-4 v 5.2e-4 c -2e-4,1.2e-4 -10e-4,3.5e-4 -0.002,5.1e-4 -0.001,0.001 -0.003,0.004 -0.004,0.005 h -5.1e-4 -5.2e-4 -5.2e-4 c -0.0203,-0.0262 -0.028,-0.0605 -0.0548,-0.0822 -0.008,-0.0144 -0.0159,-0.0291 -0.0238,-0.0434 -0.002,0.001 -0.005,0.004 -0.006,0.005 v 5.2e-4 h -5.1e-4 -5.2e-4 v -5.2e-4 h -5.2e-4 v -5.2e-4 c -0.0342,-0.0522 -0.0487,-0.11863 -0.0904,-0.16639 -0.008,-0.0136 -0.0163,-0.0267 -0.0243,-0.0403 -6.8e-4,0.003 -5e-4,0.0108 -0.002,0.014 l -5.1e-4,5.2e-4 v 5.2e-4 h -5.2e-4 -5.2e-4 -5.1e-4 v -5.2e-4 c -0.0121,-0.0129 -0.015,-0.0325 -0.0258,-0.0465 h -5.2e-4 v -5.2e-4 h -5.2e-4 -5.1e-4 l -5.2e-4,5.2e-4 c -10e-4,3.5e-4 -0.003,0.001 -0.005,0.002 l -5.2e-4,5.2e-4 h -5.1e-4 -5.2e-4 v -5.2e-4 h -5.2e-4 v -5.2e-4 c -0.0226,-0.0356 -0.0322,-0.0787 -0.0599,-0.11162 -0.004,0.005 -0.007,0.009 -0.008,0.0103 l -5.2e-4,5.1e-4 -5.1e-4,5.2e-4 h -5.2e-4 -5.2e-4 v -5.2e-4 l -5.1e-4,-5.1e-4 c -0.002,-0.005 -0.003,-0.0218 -0.0238,-0.0481 l -5.1e-4,-5.2e-4 -5.2e-4,-5.2e-4 h -5.2e-4 v -5.1e-4 c -2.2e-4,-7e-5 -0.001,3e-5 -0.002,0 -0.002,-1.1e-4 -0.005,-1.5e-4 -0.007,-5.2e-4 h -5.2e-4 l -5.2e-4,-5.2e-4 h -5.1e-4 v -5.1e-4 h -5.2e-4 c -0.0373,-0.0565 -0.0603,-0.12434 -0.10077,-0.17932 -0.0103,-0.0144 -0.0178,-0.0315 -0.031,-0.0434 v -5.1e-4 h -5.1e-4 -5.2e-4 -5.2e-4 v 5.1e-4 h -5.1e-4 v 5.2e-4 l -5.2e-4,5.2e-4 -5.2e-4,5.1e-4 c -9.3e-4,10e-4 -0.003,0.004 -0.004,0.006 v 5.1e-4 h -5.2e-4 -5.2e-4 v 5.2e-4 h -5.1e-4 -5.2e-4 v -5.2e-4 c -0.0124,-0.0104 -0.0158,-0.0293 -0.0289,-0.0388 v -5.2e-4 h -5.2e-4 -5.1e-4 v 5.2e-4 h -5.2e-4 v 5.1e-4 5.2e-4 c -7.2e-4,0.003 -10e-4,0.008 -0.002,0.0114 v 5.2e-4 l -5.1e-4,5.1e-4 h -5.2e-4 v 5.2e-4 h -5.2e-4 -5.1e-4 v -5.2e-4 c -0.0242,-0.0103 -0.0234,-0.0545 -0.0476,-0.063 -0.001,0.003 -0.002,0.0108 -0.003,0.014 l -5.1e-4,5.2e-4 v 5.1e-4 h -5.2e-4 -5.2e-4 -5.1e-4 -5.2e-4 c -0.0255,-0.0108 -0.0284,-0.0487 -0.0475,-0.0687 h -5.2e-4 v -5.1e-4 h -5.2e-4 -5.1e-4 -5.2e-4 -5.2e-4 l -5.1e-4,5.1e-4 c -0.002,6.5e-4 -0.004,0.002 -0.006,0.003 l -5.1e-4,5.1e-4 h -5.2e-4 -5.2e-4 v -5.1e-4 h -5.2e-4 -5.1e-4 v -5.2e-4 c -0.0237,-0.0267 -0.0301,-0.0385 -0.031,-0.0434 v -5.1e-4 -5.2e-4 l 5.2e-4,-5.2e-4 v -5.1e-4 -5.2e-4 h 5.2e-4 l 5.1e-4,-5.2e-4 h 5.2e-4 l 5.2e-4,-5.1e-4 v -5.2e-4 h -5.2e-4 c -0.001,-9.3e-4 -0.005,-0.003 -0.0155,-0.009 -0.0627,-0.11647 -0.13362,-0.22871 -0.21033,-0.33642 -0.036,-0.0514 -0.076,-0.11314 -0.12299,-0.15606 -0.005,-0.004 -0.0137,-0.002 -0.0186,-0.006 -0.0331,-0.0299 -0.0528,-0.0729 -0.0863,-0.10232 -0.009,-0.007 -0.0175,-0.0153 -0.0274,-0.0212 -0.006,-0.003 -0.0145,-0.002 -0.0196,-0.006 -0.033,-0.0284 -0.0552,-0.0679 -0.0873,-0.0971 -0.007,-0.006 -0.0179,-0.007 -0.0248,-0.0134 -0.018,-0.0167 -0.0328,-0.037 -0.0491,-0.0553 -0.0575,-0.0639 -0.11814,-0.13191 -0.19068,-0.17983 -0.009,-0.006 -0.0214,-0.009 -0.0305,-0.0155 -0.0206,-0.0156 -0.0386,-0.0345 -0.0579,-0.0517 -0.0571,-0.0281 -0.0955,-0.077 -0.14986,-0.10956 -0.009,-0.005 -0.0212,-0.004 -0.0305,-0.008 -0.0357,-0.0177 -0.0455,-0.0246 -0.0475,-0.0274 v -5.2e-4 h -5.2e-4 v -5.2e-4 h 5.2e-4 v -5.1e-4 h 5.2e-4 v -5.2e-4 -5.2e-4 c -0.002,-6.1e-4 -0.008,-0.002 -0.0305,-0.009 -0.016,-0.0102 -0.0321,-0.0203 -0.0481,-0.0305 -0.0113,-0.004 -0.0235,-0.006 -0.0341,-0.0119 -0.0183,-0.01 -0.0341,-0.0243 -0.0522,-0.0346 -0.0134,-0.008 -0.0287,-0.0107 -0.0419,-0.0186 -0.0225,-0.0133 -0.0417,-0.0318 -0.0646,-0.0444 -0.0127,-0.007 -0.0276,-0.01 -0.0413,-0.0145 -0.0283,-0.0164 -0.0472,-0.0274 -0.0594,-0.0346 0.005,0.003 0.0104,0.007 0.0124,0.009 l 5.1e-4,5.1e-4 v 5.2e-4 h -5.1e-4 -5.2e-4 c -0.004,-6.9e-4 -0.0183,-0.007 -0.0537,-0.0248 -0.0821,-0.0407 -0.15974,-0.0889 -0.24082,-0.13177 -0.44715,-0.16254 0.21142,0.0781 -1.18339,-0.51935 -0.0282,-0.0121 -0.0591,-0.0153 -0.0889,-0.0227 -0.0821,-0.0202 -0.16406,-0.041 -0.24701,-0.0574 -0.15613,-0.0435 -0.31692,-0.0679 -0.47749,-0.0873 -0.16655,-0.0229 -0.33496,-0.0262 -0.50281,-0.0305 -0.15781,10e-4 -0.31558,-0.0132 -0.47336,-0.002 z m 5.53041,3.22564 0.0176,-0.008 c -0.0142,-0.017 -0.0211,-0.0262 -0.0232,-0.0284 h -5.2e-4 v 5.2e-4 c 1.4e-4,0.003 0.005,0.016 0.006,0.0362 z m -3.8716,-0.19275 c 0.0117,0.005 0.0233,0.0104 0.0351,0.0155 -0.0134,-0.0124 -0.0144,-0.0191 -0.016,-0.0217 l -5.1e-4,-5.2e-4 -5.2e-4,-5.1e-4 h -5.2e-4 v -5.2e-4 h -5.1e-4 c -0.002,-10e-5 -0.008,9.8e-4 -0.0171,0.003 -2.8e-4,0.002 3e-5,0.003 0,0.005 z m 0.0351,0.0155 c 0.005,0.004 0.0102,0.009 0.0181,0.0145 2.5e-4,1.9e-4 10e-4,8.9e-4 0.002,0.001 2.6e-4,1e-4 0.001,4.5e-4 0.002,5.1e-4 0.003,4e-4 0.007,-0.002 0.0108,-0.002 0.004,0.002 0.008,0.003 0.0119,0.004 -0.0148,-0.006 -0.0294,-0.0123 -0.0439,-0.0186 z" />
    <path
       style="fill:#1a1a1a;stroke-width:0.264583"
       id="path54"
       d="m 23.431444,127.47334 c 0.0392,0.15055 0.0945,0.29554 0.136534,0.44527 0.05029,0.16016 0.08847,0.32372 0.129698,0.4864 0.04025,0.16221 0.08565,0.32278 0.126121,0.48497 0.04655,0.17366 0.109088,0.34162 0.173429,0.50926 0.05278,0.14024 0.127482,0.27039 0.186837,0.40748 0.01653,0.0519 0.05569,0.0726 0.09261,0.10481 0.04809,0.0532 0.03957,0.1255 0.04738,-0.006 0.01229,-0.23631 0.108197,-0.44767 0.237656,-0.64139 0.09658,-0.12237 0.03636,-0.0528 0.188937,-0.20135 0,0 1.801326,2.34233 1.801326,2.34233 v 0 c 0.236778,-0.19485 0.136573,-0.0994 0.307795,-0.27863 0.03692,-0.0477 0.0767,-0.0933 0.110747,-0.14314 0.180165,-0.26352 0.278865,-0.57 0.291243,-0.88845 -0.0029,-0.20337 -0.02553,-0.40328 -0.07998,-0.59993 -0.04465,-0.167 -0.09353,-0.33578 -0.180319,-0.48649 -0.04661,-0.0354 -0.07142,-0.11997 -0.106666,-0.16991 -0.0055,-0.008 -0.01664,-0.0104 -0.0218,-0.0185 -0.01209,-0.0188 -0.01934,-0.0403 -0.029,-0.0604 -0.03138,-0.0398 -0.0453,-0.0777 -0.0694,-0.12216 -0.02156,-0.0398 -0.05677,-0.0701 -0.06128,-0.11963 -0.06748,-0.11225 -0.06671,-0.25188 -0.126936,-0.36819 -0.04637,-0.16031 -0.09239,-0.32069 -0.128073,-0.48372 -0.02484,-0.0971 -0.05742,-0.20706 -0.06106,-0.30597 z" />
    <path
       style="fill:#1a1a1a;stroke-width:0.264583"
       id="path55"
       d="m 17.743149,126.18318 c 0.02111,0.10249 0.01772,0.2086 0.02208,0.31285 0.0068,0.14242 0.008,0.28501 0.007,0.42756 0.0055,0.121 -0.01312,0.24372 -0.0025,0.36444 -0.0043,0.0967 -0.0091,0.19319 -0.01991,0.28934 -0.0085,0.0688 -0.01665,0.13766 -0.0246,0.20653 0,0 2.876099,0.52567 2.876099,0.52567 v 0 c 0.0042,-0.0554 0.0085,-0.11077 0.01499,-0.16595 0.01876,-0.15175 0.0418,-0.30274 0.04632,-0.45591 0.0099,-0.15004 0.0045,-0.29997 0.0026,-0.45028 -9.78e-4,-0.14204 2.44e-4,-0.28413 0.007,-0.42603 0.0043,-0.10263 7.14e-4,-0.20729 0.02207,-0.30806 z" />
    <path
       id="path56"
       style="fill:#1a1a1a;stroke-width:0.264583"
       d="m 46.926334,115.70921 c -0.08931,0.002 -0.178819,0.008 -0.268201,0.0134 -0.175921,0.0145 -0.35046,0.0418 -0.526583,0.0558 -0.183136,0.0204 -0.366015,0.0434 -0.549837,0.0568 -0.207184,0.005 -0.414181,0.0266 -0.621667,0.0233 -0.252995,0.0101 -0.506034,0.0137 -0.759127,0.0207 -0.180303,10e-4 -0.3593,0.002 -0.534335,-0.0465 l 0.875399,2.82722 c 0.187423,-0.0477 0.38149,-0.0627 0.574125,-0.0749 0.06364,-0.003 0.12754,-0.006 0.191203,-0.008 0.0724,-0.0269 0.144503,-0.0543 0.216524,-0.0822 0.110967,-0.0439 0.223698,-0.0841 0.341065,-0.10749 0.09285,-0.0196 0.185953,-0.0385 0.279053,-0.0568 0.106469,-0.0208 0.211268,-0.0487 0.31781,-0.0692 0.141618,-0.029 0.283984,-0.0537 0.42788,-0.0682 0.161493,-0.0162 0.323908,-0.0262 0.486276,-0.0232 v 0.004 c 0.02542,4.2e-4 0.05042,0.001 0.07441,0.003 0.0211,-0.0103 0.0433,-0.0199 0.06718,-0.0289 0.03869,-0.0147 0.08093,-0.0163 0.12144,-0.0253 0.01823,-5e-4 0.03654,-0.002 0.05478,-0.003 0.01823,-8.8e-4 0.03656,-10e-4 0.05478,0 0.116406,0.005 0.229232,0.0423 0.337447,0.0822 0.116555,0.0481 0.231952,0.0987 0.340548,0.16329 0.100175,0.0643 0.196195,0.13489 0.291455,0.20619 0.08792,0.0702 0.175022,0.14083 0.258382,0.21653 0.112076,0.10224 0.20982,0.21657 0.28112,0.3514 0.0033,0.006 0.0065,0.012 0.0098,0.0181 l 1.570964,-0.24804 c -0.05284,-0.18403 -0.120302,-0.36519 -0.220659,-0.52917 -0.08141,-0.15877 -0.172665,-0.31224 -0.258382,-0.46871 -0.09534,-0.18803 -0.194561,-0.37456 -0.299206,-0.55759 -0.120346,-0.20546 -0.238004,-0.41454 -0.398426,-0.59221 -0.03326,-0.0386 -0.06448,-0.0795 -0.09973,-0.11627 -0.01331,-0.0139 -0.134575,-0.11661 -0.147278,-0.12712 -0.375385,-0.31042 -0.851348,-0.4806 -1.317232,-0.61754 -0.128727,-0.0572 -0.269744,-0.0869 -0.406177,-0.11937 -0.160755,-0.0449 -0.33095,-0.0571 -0.497127,-0.0615 -0.08921,-0.0111 -0.178371,-0.0131 -0.267684,-0.0109 z" />
    <path
       id="path57"
       style="fill:#1a1a1a;stroke-width:0.264583"
       d="m 47.568155,116.74326 0.01447,0.17157 c 0.04373,-0.0128 0.08876,-0.0227 0.131259,-0.0372 0.02611,-0.009 0.05429,-0.0113 0.08061,-0.0196 h 5.17e-4 l 5.16e-4,-5.2e-4 5.17e-4,-5.1e-4 5.17e-4,-5.2e-4 c 8.63e-4,-8.7e-4 0.0021,-0.003 0.0026,-0.004 v -5.1e-4 -5.2e-4 -5.2e-4 h -5.17e-4 v -5.1e-4 h -5.17e-4 c -0.01564,-0.005 -0.03238,-0.004 -0.04858,-0.006 -0.06498,-0.0242 -0.133775,-0.0492 -0.181384,-0.1018 z m 0.01447,0.17157 c -0.04798,0.014 -0.09412,0.0312 -0.133325,0.061 -0.219905,0.16741 -0.509558,0.30628 -0.607198,0.56483 -0.08027,0.21255 -0.09482,0.43992 -0.09508,0.67024 0.04733,-0.007 0.09499,-0.0128 0.142627,-0.0176 0.161493,-0.0162 0.323908,-0.0262 0.486276,-0.0232 v 0.004 c 0.02542,4.2e-4 0.05042,0.001 0.07441,0.003 0.0211,-0.0103 0.0433,-0.0199 0.06718,-0.0289 0.02273,-0.009 0.04668,-0.0128 0.0708,-0.0165 h 5.17e-4 l 0.09095,-0.0718 z m 0.09715,1.14514 0.0052,0.0605 c 0.0029,-1.8e-4 0.0058,-3.8e-4 0.0088,-5.2e-4 0.01823,-8.8e-4 0.03656,-10e-4 0.05478,0 0.116406,0.005 0.229232,0.0423 0.337447,0.0822 0.116555,0.0481 0.231952,0.0987 0.340548,0.16329 0.100175,0.0643 0.196195,0.13489 0.291455,0.20619 0.08792,0.0702 0.175022,0.14083 0.258382,0.21653 0.112076,0.10224 0.20982,0.21657 0.28112,0.3514 0.0181,0.0332 0.0357,0.0667 0.05323,0.10025 0.05245,-0.0647 0.09224,-0.12954 0.114722,-0.19069 0.152587,-0.41494 0.05658,-0.88274 0.08475,-1.32395 -0.07374,-0.11852 -0.104981,-0.27817 -0.221175,-0.35553 -0.06521,-0.0434 -0.132214,-0.0839 -0.200504,-0.12196 6.95e-4,0.005 0.0013,0.01 0.0021,0.015 -7.57e-4,0.005 9.98e-4,0.0143 0,0.0191 v 5.1e-4 l -5.17e-4,5.2e-4 v 5.2e-4 h -5.17e-4 v 5.1e-4 h -5.17e-4 l -5.16e-4,5.2e-4 h -5.17e-4 -5.17e-4 -5.17e-4 c -0.04309,-0.006 -0.06733,-0.056 -0.10542,-0.077 l -5.16e-4,-5.1e-4 h -5.17e-4 -5.17e-4 -5.17e-4 -5.16e-4 -5.17e-4 v 5.1e-4 c -0.0026,0.002 -0.0061,0.005 -0.0088,0.007 h -5.17e-4 l -5.17e-4,5.2e-4 -5.16e-4,-5.2e-4 h -5.17e-4 c -0.01379,-0.006 -0.0619,-0.0441 -0.08785,-0.0651 -0.0094,-0.005 -0.01899,-0.009 -0.02842,-0.0134 -0.0021,0.001 -0.0041,0.003 -0.0062,0.004 z m 1.171505,-0.92449 c 0.0024,-0.001 0.0048,-0.003 0.0072,-0.004 0.0011,8.9e-4 0.01418,0.0114 0.02119,0.017 0.06907,0.0337 0.141779,0.0613 0.208773,0.0987 -0.04963,-0.33996 -0.01702,-0.0943 -0.692465,-0.32711 0.153805,0.0679 0.3042,0.14224 0.45527,0.21497 z m -0.45527,-0.21497 c -0.10253,-0.0453 -0.204494,-0.0911 -0.304891,-0.14004 -0.0227,-0.0111 -0.08625,-0.0253 -0.0987,-0.0248 -2.07e-4,2e-5 -8.68e-4,-3e-5 -0.001,0 h -5.17e-4 v 5.2e-4 5.2e-4 h 5.17e-4 v 5.1e-4 c 8.71e-4,6.6e-4 0.0029,0.002 0.0052,0.003 0.155327,0.0702 0.28703,0.12196 0.399458,0.16071 z" />
    <path
       id="path58"
       style="fill:#1a1a1a;stroke-width:0.264583"
       d="m 42.455289,127.19637 -2.699577,1.09812 c 0.08297,0.12689 0.04024,0.0657 0.128158,0.18449 0.03003,0.0351 0.05202,0.0602 0.06718,0.078 -0.0107,-0.013 -0.0206,-0.0251 -0.0217,-0.0279 v -5.1e-4 h 5.17e-4 c 0.004,0.002 0.02351,0.0222 0.07235,0.0749 0.103685,0.11189 0.196943,0.23467 0.313159,0.33486 0.182316,0.17497 0.377481,0.3383 0.574125,0.49661 0.199848,0.15514 0.406182,0.30128 0.604614,0.45837 0.388192,0.17869 0.772936,0.36538 1.164787,0.53589 0.04754,0.0207 0.100116,0.0262 0.150895,0.0367 0.169222,0.0349 0.341635,0.062 0.514181,0.0718 0.197344,0.0101 0.394669,0.0118 0.592212,0.0103 0.183105,-0.006 0.365791,-0.0216 0.54932,-0.0171 0.156104,-0.004 0.311925,-0.009 0.467672,-0.0202 0.162177,-0.0104 0.32433,-0.0258 0.485758,-0.0444 0.173373,-0.0214 0.345867,-0.0465 0.518315,-0.0744 0.163721,-0.0217 0.32813,-0.038 0.488859,-0.0801 0.227595,-0.0506 0.454589,-0.10527 0.674894,-0.18242 0.265602,-0.0982 0.521711,-0.21788 0.753959,-0.38189 0.134051,-0.0962 0.26839,-0.1928 0.412895,-0.27285 l -1.335319,-1.32447 c -0.04111,0.006 -0.08257,0.0102 -0.124024,0.0129 -0.06832,0.006 -0.136168,0.0147 -0.203088,0.03 -0.108926,0.0227 -0.219216,0.0411 -0.330212,0.0501 -0.09976,0.01 -0.199223,0.0258 -0.299724,0.0238 -0.08,-2e-5 -0.159778,1.1e-4 -0.239778,0 -0.08803,-1.2e-4 -0.176037,-3.1e-4 -0.264067,-0.001 -0.09248,-0.001 -0.185082,-0.002 -0.277502,-0.006 -0.116421,-0.005 -0.232803,-0.0117 -0.348299,-0.0279 -0.09452,-0.0137 -0.189201,-0.0262 -0.284221,-0.0362 -0.118341,-0.0182 -0.234712,-0.0434 -0.350883,-0.0724 -0.115191,-0.0298 -0.230697,-0.0613 -0.33693,-0.11627 -0.07787,-0.0386 -0.157685,-0.0734 -0.237195,-0.10852 -0.08493,-0.0388 -0.170802,-0.0765 -0.252181,-0.12247 -0.04721,0.003 -0.09439,0.005 -0.141077,5.1e-4 -0.02047,-0.002 -0.04037,-0.007 -0.06046,-0.0114 -0.13219,-0.0779 -0.251633,-0.17411 -0.375171,-0.2651 -0.0641,-0.0589 -0.141575,-0.10464 -0.203088,-0.1664 -0.06843,-0.079 -0.03545,-0.0455 -0.09663,-0.10336 -0.0367,-0.0272 -0.01897,-0.0157 -0.05271,-0.0341 z m 0.211873,0.34261 h 5.17e-4 5.17e-4 5.17e-4 v 5.2e-4 c 2.98e-4,9e-5 6.75e-4,-1.5e-4 0.001,0 0.166322,0.0708 0.330973,0.14578 0.49506,0.22169 -0.01135,-0.002 -0.02262,-0.005 -0.03411,-0.006 -0.111731,-0.008 -0.224131,-0.0184 -0.323495,-0.0734 -0.02577,-0.0376 -0.08213,-0.0437 -0.112137,-0.0739 -0.0083,-0.008 -0.0084,-0.0221 -0.0124,-0.0331 -0.0031,-0.008 -0.01421,-0.026 -0.01602,-0.0331 -4.1e-5,-2.7e-4 2e-6,-8.1e-4 0,-0.001 v -5.1e-4 -5.2e-4 h 5.17e-4 z m 0.556555,0.2496 c 0.149294,0.0693 0.298261,0.13902 0.448035,0.20722 -0.161991,-0.0151 -0.297481,-0.12055 -0.434599,-0.19999 -0.0044,-0.002 -0.0091,-0.005 -0.01344,-0.007 z" />
    <path
       id="path59"
       style="fill:#1a1a1a;stroke-width:0.264583"
       d="m 43.131217,127.61598 -1.966805,0.6196 c 0.0164,0.0296 0.03014,0.0608 0.04909,0.0889 0.005,0.007 0.01606,0.008 0.02119,0.016 0.01683,0.0238 0.02723,0.0517 0.04341,0.076 0.0059,0.009 0.01676,0.0138 0.02274,0.0227 0.03707,0.0549 0.06672,0.11441 0.100253,0.17156 l 1.918229,-0.87436 c -0.06195,-0.0403 -0.125068,-0.0783 -0.186552,-0.11938 -5.76e-4,-3.6e-4 -9.75e-4,-6.7e-4 -0.0016,-0.001 z" />
    <path
       style="fill:#1a1a1a;stroke-width:0.264583"
       id="path60"
       d="m 150.81852,120.57316 c 0.0106,-0.005 0.0207,-0.0105 0.0318,-0.0135 0.002,-5.3e-4 0.003,0.003 0.006,0.003 0.0154,2.4e-4 0.0307,-0.002 0.046,-0.003 0.0714,-0.004 0.14277,-0.007 0.21423,-0.009 0.027,-2.3e-4 0.054,-0.002 0.0809,-8e-4 0.0197,0.001 0.039,0.007 0.0586,0.009 0.10173,0.01 0.20321,0.006 0.30412,0.0234 0.15305,0.0162 0.30465,0.0379 0.45785,0.0542 0.0277,0.002 0.0557,0.002 0.0831,0.006 0.0188,0.003 0.0368,0.01 0.0552,0.0145 0.0228,0.003 0.0457,0.007 0.0685,0.0102 0.0663,0.009 0.13113,0.0114 0.19508,0.0314 0.0428,0.0116 0.0881,0.009 0.13107,0.0198 0.0138,0.003 0.0258,0.012 0.0393,0.0163 0.0174,0.006 0.036,0.007 0.053,0.0134 0.11298,0.044 -0.0967,-0.01 0.0831,0.0307 0.0869,0.0539 0.19024,0.0611 0.28612,0.0893 0.11032,0.0295 0.22562,0.0455 0.33349,0.0832 0.14347,0.035 -0.005,-0.007 0.0851,0.0316 0.0157,0.007 0.0333,0.008 0.0487,0.0157 0.009,0.004 0.0146,0.0142 0.0236,0.0187 0.0268,0.0135 0.0767,0.0242 0.10392,0.0312 0.0212,0.004 0.0435,0.005 0.0635,0.0129 0.007,0.003 0.007,0.0145 0.0133,0.0188 0.0164,0.0108 0.0545,0.0134 0.0493,0.0324 -0.0107,0.0388 -0.0461,0.001 0.003,0.0368 -0.35661,-0.16029 -0.71322,-0.32058 -1.06983,-0.48087 0.01,0.004 0.0191,0.0157 0.0294,0.0128 0.007,-0.002 -0.002,-0.0137 -0.002,-0.0206 2e-5,-0.006 0.004,-0.0126 0.002,-0.0183 -0.0449,-0.11978 -0.0303,-0.0295 -0.0392,-0.10125 -0.001,-0.005 -0.0126,-0.0588 -0.008,-0.0664 0.003,-0.005 0.0116,0.004 0.0175,0.007 2.7e-4,-0.0102 -2.2e-4,-0.0204 7.9e-4,-0.0305 8e-4,-0.007 -0.002,-0.0201 0.004,-0.0197 0.01,7.9e-4 0.0129,0.0142 0.0193,0.0213 8e-4,5.3e-4 0.0105,-0.0203 0.0174,-0.0164 0.0374,0.0218 0.0503,0.0801 0.0692,0.11512 0.004,0.0488 0.0444,0.0828 0.0627,0.12425 0.0219,0.0617 0.0108,0.0348 0.0319,0.0814 0.0334,0.0621 0.0565,0.13208 0.0754,0.20036 0.0388,0.0734 0.0601,0.15818 0.0775,0.23926 0.0312,0.0868 0.0415,0.18487 0.0898,0.26486 0.003,-0.001 0.007,-0.006 0.008,-0.004 0.008,0.0151 0.0101,0.0326 0.0157,0.0486 0.0103,0.0289 0.0248,0.0557 0.0388,0.0828 0.0236,0.0392 0.0112,0.0892 0.0288,0.13091 0.002,0.005 0.002,-0.01 0.002,-0.0147 -5.3e-4,-0.0137 -0.003,-0.0272 -0.004,-0.0408 -0.002,-0.0354 -0.002,-0.0708 -0.002,-0.10618 0.20733,-1.24965 -0.0421,-0.43075 2.86814,-0.35135 0.0312,8e-4 0.0137,0.0611 0.0163,0.0922 10e-4,0.0111 -0.003,0.0222 -0.006,0.033 -0.002,0.007 -7.9e-4,0.0244 -0.008,0.0217 -0.011,-0.004 -0.0111,-0.0208 -0.0167,-0.0312 -0.0519,-0.13947 -0.10163,-0.27957 -0.15407,-0.41883 -0.0658,-0.15902 -0.13484,-0.3163 -0.21484,-0.46871 -0.082,-0.16235 -0.18549,-0.31038 -0.2998,-0.45117 -0.12677,-0.17927 -0.28414,-0.33121 -0.44303,-0.48118 -0.16551,-0.13652 -0.33686,-0.26556 -0.51054,-0.39155 -0.16367,-0.11794 -0.33312,-0.22746 -0.50419,-0.33426 -0.1737,-0.10584 -0.34813,-0.21128 -0.52581,-0.31026 -0.45123,-0.26629 -0.0491,-0.0337 -1.22389,-0.56171 -0.0646,-0.0291 -0.0874,-0.0444 -0.15527,-0.0685 -0.024,-0.009 -0.1598,-0.0484 -0.18589,-0.0562 -0.0242,-0.008 -0.0484,-0.0166 -0.0726,-0.0249 -0.0295,-0.007 -0.0594,-0.0131 -0.0884,-0.0222 -0.0902,-0.0284 -0.0284,-0.0188 -0.11387,-0.0483 -0.0137,-0.005 -0.14641,-0.0402 -0.15964,-0.0437 -0.12686,-0.059 -0.266,-0.0822 -0.40106,-0.11521 -0.1298,-0.0197 -0.25574,-0.0579 -0.38283,-0.0896 -0.0873,-0.0281 -0.18242,-0.0246 -0.27048,-0.0471 -0.0107,-0.003 -0.0191,-0.0114 -0.0295,-0.0153 -0.0151,-0.006 -0.031,-0.008 -0.0464,-0.0125 -0.11669,-0.0241 -0.23572,-0.0336 -0.35436,-0.0421 -0.13792,-0.0183 -0.27432,0.007 -0.41129,0.0206 -0.21476,0.0274 -0.39816,0.0876 -0.59785,0.17059 -0.18966,0.0913 -0.37589,0.18961 -0.55404,0.30172 -0.23414,0.14163 -0.45654,0.30122 -0.68111,0.45728 -0.30369,0.21691 -0.60911,0.43143 -0.91252,0.64874 -0.33632,0.23008 -0.64063,0.49891 -0.91764,0.79685 -0.28317,0.31207 -0.53306,0.65264 -0.77825,0.99484 -0.27739,0.38868 -0.5207,0.80004 -0.76619,1.20918 -0.24674,0.40756 -0.49389,0.81506 -0.74757,1.21835 -0.26434,0.43708 -0.54703,0.8619 -0.85031,1.27279 -0.32405,0.41859 -0.68955,0.80223 -1.05188,1.18732 -0.3502,0.35884 -0.69647,0.72149 -1.04251,1.08435 -0.29238,0.30679 -0.5871,0.61122 -0.88597,0.91169 -0.23808,0.23348 -0.46399,0.47881 -0.69362,0.72048 -0.18689,0.20157 -0.37295,0.40426 -0.55316,0.61186 -0.14422,0.15543 -0.26656,0.32905 -0.40219,0.49157 -0.12676,0.15109 -0.24964,0.30533 -0.36848,0.46271 -0.12282,0.16128 -0.23894,0.32723 -0.34958,0.49708 -0.10276,0.16344 -0.19822,0.33157 -0.28693,0.50303 -0.072,0.13257 -0.13674,0.26882 -0.2056,0.40295 -0.0692,0.14005 -0.13251,0.28283 -0.19195,0.42727 -0.0534,0.12794 -0.10442,0.25684 -0.15635,0.38537 -0.0516,0.12517 -0.0898,0.25517 -0.1303,0.38419 -0.043,0.13339 -0.0715,0.27077 -0.0982,0.40818 -0.0216,0.11279 -0.0372,0.22656 -0.0506,0.34057 -0.0111,0.097 -0.0187,0.19443 -0.0251,0.29188 -0.0197,0.17243 -0.004,0.34512 0.0145,0.51677 0.0143,0.15937 0.064,0.3106 0.11137,0.46212 0.0443,0.15186 0.10417,0.29991 0.18198,0.43785 0.0368,0.0651 0.0799,0.12647 0.12005,0.18959 0.14125,0.19909 0.32053,0.36121 0.51966,0.50017 0.46653,0.28028 0.24585,0.1553 1.29344,0.57177 0.0463,0.0184 0.098,0.0176 0.14712,0.0256 0.14137,0.0228 0.28342,0.0422 0.42521,0.0621 0.25647,0.0297 0.51326,0.0554 0.76977,0.0846 0.25056,0.0208 0.50112,0.0431 0.7522,0.0569 0.27944,0.0136 0.55915,0.0206 0.83884,0.0268 0.30887,8e-4 0.61697,-0.017 0.92517,-0.034 0.31391,-0.0262 0.62808,-0.05 0.94146,-0.0819 0.29209,-0.0297 0.58064,-0.0848 0.86649,-0.1507 0.25462,-0.0694 0.50551,-0.15101 0.75334,-0.24146 0.18872,-0.074 0.37927,-0.14243 0.56529,-0.22317 0.17462,-0.0699 0.33457,-0.16977 0.5029,-0.25221 0.13155,-0.0663 0.25409,-0.14797 0.3821,-0.22019 0.15084,-0.0915 0.27873,-0.21545 0.40353,-0.33893 0.1245,-0.13523 0.23269,-0.28374 0.3332,-0.43728 0.10692,-0.17082 0.17983,-0.35805 0.24114,-0.54905 0.0478,-0.15266 0.0836,-0.3086 0.10833,-0.46655 0.017,-0.13214 0.0284,-0.26504 0.0283,-0.39831 0.002,-0.14336 -0.0161,-0.28624 -0.0317,-0.42859 -0.0233,-0.11553 -0.0335,-0.23392 -0.0708,-0.34618 -0.0198,-0.10178 -0.0605,-0.19729 -0.0889,-0.2963 -0.0418,-0.0871 -0.053,-0.21614 -0.10573,-0.29413 -0.0284,-0.087 -0.0742,-0.16546 -0.10369,-0.25132 0,0 -2.85179,0.64744 -2.85179,0.64744 v 0 c 0.0329,0.0219 0.0487,0.11785 0.0847,0.15633 0.006,0.0195 0.0105,0.04 0.0194,0.0585 0.004,0.008 0.029,-0.0105 0.0208,0.0154 0.016,0.0338 0.0277,0.0655 0.041,0.1004 0.0215,0.0354 0.0235,0.0768 0.0413,0.11389 0.002,0.004 0.008,0.006 0.01,0.0106 0.0294,0.0645 -7.9e-4,0.0221 0.0232,0.0534 0.007,0.0256 0.006,0.0571 0.0244,0.0758 0.007,0.007 0.006,-0.0297 0.0156,-0.003 0.008,0.0235 0.007,0.0495 0.0178,0.0724 0.018,-0.007 8e-4,-0.003 0.0142,0.0252 0.001,0.002 0.006,-0.002 0.007,5.3e-4 0.006,0.0204 -0.006,0.0472 0.008,0.0629 0.003,0.004 0.005,-0.008 0.007,-0.0124 0.003,0.0244 0.003,0.0406 0.007,0.0406 0.005,-1e-4 0.005,-0.0179 0.007,-0.0132 0.009,0.0217 -0.007,0.0533 0.002,0.076 0.007,0.0108 0.003,0.008 0.013,-0.0108 0.004,0.004 -0.0105,0.0736 -0.0108,0.0857 -0.003,0.0275 0.0125,-0.0157 0.0178,-0.0221 -0.005,0.007 -0.0658,0.0885 -0.0268,0.0265 -0.008,0.004 -0.0392,0.0288 -0.0395,0.0213 -2.7e-4,-0.006 0.0156,-0.0165 0.01,-0.0157 -0.0263,0.004 -0.0417,0.0385 -0.068,0.0413 -0.0848,0.0575 -0.17604,0.10568 -0.26493,0.15672 -0.1053,0.0619 -0.2171,0.11069 -0.33027,0.15653 -0.14796,0.0605 -0.29432,0.12505 -0.44476,0.1792 -0.16299,0.0557 -0.32742,0.11051 -0.49825,0.13668 -0.21228,0.0401 -0.42553,0.0745 -0.64078,0.0945 -0.27233,0.0253 -0.54505,0.0468 -0.81891,0.0423 -0.25826,0.003 -0.51693,-0.002 -0.77432,-0.0244 -0.25175,-0.0174 -0.50337,-0.038 -0.75357,-0.0716 -0.22511,-0.0294 -0.45096,-0.0525 -0.67481,-0.091 -0.19725,-0.0298 -0.39557,-0.0555 -0.58374,-0.12582 -0.0534,-0.0201 -0.0981,-0.0345 -0.14777,-0.0626 -0.0195,-0.011 -0.038,-0.0239 -0.0557,-0.0377 -0.0155,-0.0121 -0.0615,-0.0471 -0.0434,-0.0397 1.06615,0.43519 1.35559,0.43772 0.95798,0.42772 -0.0652,0.008 -0.029,0.0172 -0.0559,0.038 -0.005,0.004 -0.0145,-0.001 -0.0197,0.003 -0.0296,0.0236 0.0159,0.0226 -0.0287,0.0172 -0.001,0.0107 -0.003,0.0213 -0.004,0.032 -0.005,-1e-4 -0.0132,-0.005 -0.0158,-2.7e-4 -0.004,0.008 -0.01,0.0929 -0.0195,0.10688 -0.009,-0.0115 -0.0467,-0.0886 -0.0529,-0.0923 -0.01,-0.006 -0.006,0.0368 -0.0154,0.0308 -0.0185,0.0336 -0.003,-7.9e-4 -0.0168,-0.004 -0.005,-0.001 -2.6e-4,0.0142 -0.006,0.016 -0.0178,0.006 0.0122,-0.0433 -0.011,5.3e-4 0.002,-0.0677 0.003,-0.13543 0.006,-0.2031 0.003,-0.064 0.006,-0.1281 0.0121,-0.19196 0.005,-0.0557 0.0115,-0.11133 0.0238,-0.16598 0.0185,-0.0782 0.0429,-0.15464 0.0633,-0.23226 0.0351,-0.10607 0.0715,-0.2116 0.11291,-0.31541 0.0433,-0.10341 0.0854,-0.20729 0.1338,-0.30853 0.0582,-0.12327 0.11608,-0.24667 0.17295,-0.37057 0.0578,-0.11284 0.11536,-0.22609 0.18436,-0.33264 0.0787,-0.12569 0.15783,-0.25115 0.24781,-0.36927 0.11148,-0.14767 0.22938,-0.29022 0.34281,-0.43637 0.11804,-0.15832 0.23692,-0.316 0.35438,-0.47475 0.1462,-0.19346 0.29054,-0.38845 0.44816,-0.57293 0.20846,-0.24778 0.41506,-0.49711 0.62431,-0.74423 0.27085,-0.3218 0.54079,-0.64442 0.81855,-0.96031 0.33194,-0.37682 0.66812,-0.74981 1.00163,-1.12523 0.3862,-0.4386 0.77663,-0.87413 1.13588,-1.33546 0.34196,-0.44307 0.66678,-0.89908 0.97323,-1.36749 0.26801,-0.41106 0.53453,-0.82308 0.79505,-1.23893 0.21805,-0.35045 0.44383,-0.69672 0.70398,-1.01787 0.21286,-0.26305 0.43111,-0.52206 0.67395,-0.75835 0.20993,-0.19534 0.42575,-0.38401 0.66451,-0.54408 0.26687,-0.18506 0.53768,-0.36673 0.82845,-0.51261 0.2036,-0.0997 0.41125,-0.18875 0.62432,-0.26659 0.0509,-0.014 0.19626,-0.0738 0.24587,-0.0595 0.005,0.002 0.005,0.009 0.008,0.0138 0.009,0.0352 3e-5,-0.0162 -0.0209,0.0384 -0.01,0.0256 0.0785,0.0181 0.0671,0.0421 0.017,0.004 0.0458,7.9e-4 0.0488,0.0178 0.001,0.006 -0.0145,0.0106 -0.011,0.0161 0.0123,0.0195 0.0675,0.0108 0.0848,0.0247 0.0638,0.0193 0.12634,0.0429 0.19128,0.0583 0.0747,0.0139 0.034,0.008 0.1222,0.0166 0.0547,0.009 0.1055,0.0407 0.16045,0.0499 0.10792,0.0284 0.22019,0.0485 0.32252,0.0934 0.0356,0.0123 0.0726,0.0209 0.1075,0.035 0.0116,0.005 0.0212,0.0135 0.0325,0.0187 0.0557,0.0256 0.11671,0.0394 0.17542,0.0555 0.0339,0.0146 0.0667,0.0319 0.10138,0.0445 0.0853,0.0308 0.17383,0.0489 0.25446,0.0919 0.0502,0.0263 0.0972,0.0541 0.14972,0.076 0.0246,0.0102 0.0984,0.0405 0.0742,0.0295 -0.97157,-0.44133 -1.31997,-0.53099 -0.91089,-0.42144 0.0459,0.0188 0.0936,0.033 0.1392,0.0524 0.10086,0.0429 0.19425,0.10326 0.29616,0.14415 0.14787,0.0781 0.29549,0.15679 0.44131,0.23871 0.13435,0.076 0.26691,0.15429 0.39092,0.24603 0.08,0.0377 0.15332,0.0907 0.22797,0.13779 0.0394,0.0416 0.0807,0.0952 0.13042,0.12517 0.006,0.004 0.0149,0.003 0.0209,0.007 0.0101,0.007 0.0173,0.0179 0.026,0.0269 0.0556,0.0503 0.10261,0.11083 0.13567,0.17827 0.0419,0.0644 0.0738,0.13434 0.0924,0.20918 0.008,0.0386 0.0798,0.40041 0.0957,0.40139 2.93569,0.18001 2.68335,0.9446 2.90219,-0.32578 -0.003,-0.11176 -0.008,-0.21903 -0.0315,-0.32857 -0.002,-0.0109 -0.007,-0.021 -0.0107,-0.0316 -0.003,-10e-4 -0.008,1.2e-4 -0.009,-0.003 -0.006,-0.0209 -0.008,-0.0432 -0.0117,-0.0648 -0.0242,-0.11955 -0.0574,-0.23607 -0.0873,-0.35396 -0.006,-0.0192 -0.0226,-0.0774 -0.0335,-0.099 -0.002,-0.004 -0.008,-0.006 -0.0103,-0.01 -0.006,-0.0122 -0.008,-0.0263 -0.0145,-0.0383 -0.002,-0.003 -0.008,-0.003 -0.01,-0.006 -0.006,-0.0106 -0.009,-0.0228 -0.0136,-0.0342 -0.004,-0.001 -0.009,6e-5 -0.0105,-0.003 -0.008,-0.0182 -0.009,-0.0384 -0.0147,-0.0574 -0.0182,-0.0658 -0.0451,-0.12864 -0.0551,-0.19697 -0.0222,-0.0397 -0.006,-0.007 -0.0271,-0.0788 -0.0201,-0.0685 -0.0496,-0.13379 -0.0653,-0.20395 -0.006,-0.0175 -0.0124,-0.035 -0.0186,-0.0525 -0.005,-0.0107 -0.0113,-0.0209 -0.0154,-0.0321 -0.0271,-0.073 -0.0431,-0.15162 -0.0853,-0.21827 -0.0548,-0.13762 -0.10943,-0.27534 -0.16352,-0.41343 -0.0882,-0.16452 -0.16211,-0.33705 -0.27802,-0.48547 -0.0439,-0.0573 -0.11108,-0.14645 -0.15575,-0.19623 -0.30475,-0.33968 -1.1916,-0.48955 -1.30641,-0.64901 -0.0907,-0.0262 -0.0217,-0.009 -0.151,-0.0276 -0.0243,-0.003 -0.0484,-0.008 -0.0726,-0.0119 -0.0156,-0.004 -0.031,-0.009 -0.0469,-0.0117 -0.025,-0.004 -0.0507,-0.004 -0.0756,-0.009 -0.011,-0.002 -0.0206,-0.009 -0.0309,-0.0136 -0.11471,-0.0412 -0.23722,-0.0468 -0.35479,-0.0765 -0.11271,-0.0209 -0.22372,-0.0511 -0.3349,-0.0789 -0.19378,-0.0414 0.0272,0.009 -0.10742,-0.0298 -0.0914,-0.0266 -0.18892,-0.032 -0.28277,-0.0436 -0.1464,-0.0249 -0.2962,-0.0169 -0.44311,-0.0396 -0.10015,-0.003 -0.1984,-0.0186 -0.29843,-0.0234 -0.0309,-0.002 -0.0618,-1e-5 -0.0927,-0.002 -0.0233,-0.001 -0.0464,-0.005 -0.0695,-0.007 -0.16765,-0.0148 -0.33504,-0.0284 -0.50325,-0.0355 -0.17473,-0.002 -0.34905,-0.019 -0.52362,-0.0228 -0.0899,-0.0105 -0.18106,-0.0298 -0.27139,-0.0344 -0.0299,-0.002 -0.06,0.003 -0.0898,-1.6e-4 -0.014,-0.002 -0.0268,-0.009 -0.0401,-0.0135 z" />
    <path
       style="fill:#1a1a1a;stroke-width:0.264583"
       id="path64"
       d="m 103.29285,102.42702 c -0.48308,0.18142 -1.0242,0.13476 -1.53078,0.12631 -0.85848,-0.033 -1.71245,-0.13219 -2.56765,-0.20939 -0.80832,-0.0646 -1.618226,-0.10487 -2.426766,-0.16754 -0.856668,-0.0441 -1.708706,0.0715 -2.550914,0.21513 -0.801097,0.13151 -1.577681,0.36461 -2.354577,0.59401 -0.78867,0.25189 -1.539928,0.59922 -2.271673,0.98338 -0.606719,0.31661 -1.200147,0.65972 -1.784657,1.01573 -0.609155,0.35863 -1.12042,0.84798 -1.616887,1.34464 -0.478579,0.5172 -0.948918,1.04177 -1.392267,1.58955 -0.409302,0.5302 -0.784034,1.08747 -1.132676,1.6592 -0.321302,0.5332 -0.588319,1.09624 -0.846976,1.66171 -0.274233,0.60221 -0.480335,1.2303 -0.661998,1.86543 -0.162176,0.5827 -0.284554,1.1746 -0.390538,1.76968 -0.104204,0.59574 -0.160676,1.19889 -0.202539,1.80185 -0.03203,0.57769 -0.07294,1.155 -0.09522,1.73318 -0.03981,0.68573 -0.02707,1.37325 0.01027,2.05872 0.05233,0.82053 0.183933,1.63224 0.374269,2.43133 0.221173,0.84565 0.569328,1.65257 0.948941,2.43782 0.327118,0.72531 0.70647,1.42558 1.153655,2.08363 0.519441,0.81008 1.186535,1.50216 1.891014,2.15103 0.153834,0.12394 0.302247,0.25493 0.4615,0.37183 1.575041,1.15614 4.443449,2.21115 5.82101,2.81835 0.765305,0.25428 1.519905,0.53593 2.290808,0.7728 0.626417,0.19714 1.264211,0.34828 1.902592,0.5015 0.501809,0.1227 1.009647,0.21701 1.520269,0.29398 0.488427,0.0481 0.980152,0.0341 1.470391,0.0402 0.354094,-0.026 0.709119,0.0604 1.062079,0.0512 0.0999,-0.003 0.19923,-0.017 0.29884,-0.0255 0.475,-0.004 0.93855,-0.0638 1.39936,-0.17734 0.33356,-0.0272 0.64307,-0.19961 0.97866,-0.20048 0.0264,5.3e-4 0.0534,0.007 0.0793,0.002 0.25903,-0.0544 0.38107,-0.1193 0.6513,-0.11351 0.025,0.002 0.0504,0.009 0.0749,0.004 0.0688,-0.014 0.1338,-0.0427 0.20169,-0.0606 0.13517,-0.0357 0.26465,-0.039 0.40307,-0.038 0.17974,0.004 0.35933,0.0137 0.53897,0.0211 0.12441,0.005 0.24887,0.009 0.37334,0.0126 0,0 -3.57106,-10.12579 -3.57106,-10.12579 v 0 c -0.18977,0.0206 -0.37943,0.0424 -0.56824,0.0707 -0.32269,0.049 -0.64419,0.10537 -0.96311,0.17507 -0.18085,0.0387 -0.453129,0.12807 -0.632609,0.12376 -0.01677,-5.3e-4 -0.03021,-0.02 -0.04691,-0.0183 -0.0567,0.006 -0.110821,0.0267 -0.166232,0.0401 -0.164137,0.0409 -0.397992,0.13125 -0.56628,0.12717 -0.01326,-2.7e-4 -0.02204,-0.0199 -0.03521,-0.0185 -0.06087,0.007 -0.119242,0.0279 -0.178863,0.0418 -0.08451,0.02 -0.300461,0.10569 -0.397219,0.0776 -0.01016,-0.003 0.0096,-0.0301 -7.94e-4,-0.0317 -0.06022,-0.009 -0.121682,0.0333 -0.182504,0.008 0.0068,-0.0139 0.03195,-0.0314 0.02048,-0.0418 -0.01894,-0.0172 -0.05338,0.002 -0.07627,-0.009 -0.01035,-0.005 0.0026,-0.0311 -0.0087,-0.0336 -0.107223,-0.024 -0.23241,0.0286 -0.339312,-0.0159 -0.118415,-0.0928 -0.682012,-0.0186 -0.86568,-0.0941 -0.266901,-0.0493 -0.520711,-0.12629 -0.775822,-0.21777 -0.318328,-0.0677 -0.636378,-0.13692 -0.952301,-0.21516 -0.459285,-0.11911 -0.908397,-0.27533 -1.359493,-0.42091 -0.542216,-0.18574 -1.095161,-0.35162 -1.603629,-0.6205 1.130842,0.50203 2.264992,0.99667 3.392527,1.50608 0.100547,0.0454 -0.206994,-0.0765 -0.310822,-0.1138 -0.175321,-0.063 -0.350943,-0.12522 -0.526859,-0.18657 -0.242652,-0.0846 -0.137322,-0.0745 -0.33832,-0.0618 -0.292021,-0.0102 -0.53362,-0.15286 -0.783029,-0.29302 -0.121918,-0.1126 -0.264756,-0.20172 -0.380365,-0.32039 -0.147032,-0.15092 -0.266113,-0.3282 -0.409025,-0.48283 -0.118785,-0.18847 -0.25278,-0.36731 -0.367625,-0.55804 -0.04944,-0.0821 -0.118584,-0.22291 -0.177679,-0.30488 -0.01852,-0.0257 -0.04291,-0.0465 -0.06436,-0.0698 -0.03883,-0.068 -0.0857,-0.13161 -0.118861,-0.20251 -0.09177,-0.19622 -0.106577,-0.42376 -0.156094,-0.63192 -0.05904,-0.36814 -0.07919,-0.73852 -0.08963,-1.11088 0.01733,-0.47869 0.02244,-0.95816 0.06561,-1.43555 0.03301,-0.38363 0.06599,-0.76712 0.115382,-1.14908 0.04506,-0.33547 0.102997,-0.66936 0.20062,-0.99411 0.05699,-0.24985 0.140997,-0.49168 0.224936,-0.73348 0.121309,-0.28639 0.274161,-0.55534 0.43275,-0.82256 0.14805,-0.25563 0.302432,-0.51057 0.488365,-0.74067 0.209621,-0.24429 0.436697,-0.49072 0.701336,-0.67385 0.19263,-0.13869 0.418375,-0.22182 0.610709,-0.36351 0.331843,-0.21018 0.670745,-0.40597 1.037891,-0.549 0.341149,-0.12058 0.685671,-0.2285 1.045583,-0.27932 0.443265,-0.0895 0.894337,-0.11952 1.346251,-0.13037 0.447267,0.004 0.8901,0.0542 1.33623,0.0826 0.702157,0.0222 1.401777,0.0742 2.099797,0.15461 0.75035,0.0803 1.50234,0.16858 2.23209,0.36894 0.48012,0.14803 0.99941,0.26324 1.3921,0.59411 z" />
    <circle
       id="path65"
       style="fill:#1a1a1a;stroke:#000000;stroke-width:0.264583"
       cx="126.17944"
       cy="109.477"
       r="0.055619169" />
  </g>
</svg>
