<?xml version="1.0" encoding="UTF-8" standalone="no"?>
<svg
   viewBox="0 0 640 640"
   version="1.1"
   id="svg1"
   sodipodi:docname="off.svg"
   inkscape:version="1.4.2 (ebf0e940d0, 2025-05-08)"
   xmlns:inkscape="http://www.inkscape.org/namespaces/inkscape"
   xmlns:sodipodi="http://sodipodi.sourceforge.net/DTD/sodipodi-0.dtd"
   xmlns="http://www.w3.org/2000/svg"
   xmlns:svg="http://www.w3.org/2000/svg">
  <defs
     id="defs1" />
  <sodipodi:namedview
     id="namedview1"
     pagecolor="#505050"
     bordercolor="#ffffff"
     borderopacity="1"
     inkscape:showpageshadow="0"
     inkscape:pageopacity="0"
     inkscape:pagecheckerboard="1"
     inkscape:deskcolor="#505050"
     inkscape:zoom="0.80390625"
     inkscape:cx="329.64043"
     inkscape:cy="255.00486"
     inkscape:window-width="1266"
     inkscape:window-height="1426"
     inkscape:window-x="0"
     inkscape:window-y="0"
     inkscape:window-maximized="1"
     inkscape:current-layer="svg1" />
  <!--!Font Awesome Free 7.1.0 by @fontawesome - https://fontawesome.com License - https://fontawesome.com/license/free Copyright 2025 Fonticons, Inc.-->
  <path
     d="m 352,80 c 0,-17.7 -14.3,-32 -32,-32 -17.7,0 -32,14.3 -32,32 v 256 c 0,17.7 14.3,32 32,32 17.7,0 32,-14.3 32,-32 z m -141.7,98.4 c 14.5,-10.1 18,-30.1 7.9,-44.6 -10.1,-14.5 -30.1,-18 -44.6,-7.9 C 107.4,172.1 64,249 64,336 c 0,141.4 114.6,256 256,256 141.4,0 256,-114.6 256,-256 0,-87 -43.4,-163.9 -109.7,-210.1 -14.5,-10.1 -34.4,-6.6 -44.6,7.9 -10.2,14.5 -6.6,34.4 7.9,44.6 49.8,34.8 82.3,92.4 82.3,157.6 0,106 -86,192 -192,192 -106,0 -191.9,-86 -191.9,-192 0,-65.2 32.5,-122.9 82.3,-157.6 z"
     id="path1" />
</svg>
