<?xml version="1.0" encoding="UTF-8" standalone="no"?>
<svg
   viewBox="0 0 640 640"
   version="1.1"
   id="svg1"
   sodipodi:docname="volume-high-solid-full.svg"
   inkscape:version="1.4.2 (ebf0e940d0, 2025-05-08)"
   xmlns:inkscape="http://www.inkscape.org/namespaces/inkscape"
   xmlns:sodipodi="http://sodipodi.sourceforge.net/DTD/sodipodi-0.dtd"
   xmlns="http://www.w3.org/2000/svg"
   xmlns:svg="http://www.w3.org/2000/svg">
  <defs
     id="defs1" />
  <sodipodi:namedview
     id="namedview1"
     pagecolor="#505050"
     bordercolor="#ffffff"
     borderopacity="1"
     inkscape:showpageshadow="0"
     inkscape:pageopacity="0"
     inkscape:pagecheckerboard="1"
     inkscape:deskcolor="#505050"
     inkscape:zoom="0.85546875"
     inkscape:cx="123.3242"
     inkscape:cy="392.76712"
     inkscape:window-width="2484"
     inkscape:window-height="1440"
     inkscape:window-x="0"
     inkscape:window-y="0"
     inkscape:window-maximized="1"
     inkscape:current-layer="svg1" />
  <!--!Font Awesome Free 7.1.0 by @fontawesome - https://fontawesome.com License - https://fontawesome.com/license/free Copyright 2025 Fonticons, Inc.-->
  <path
     id="path1"
     d="m 285.19922,96 c -8.5,0 -16.69961,3.100782 -23.09961,8.80078 L 128,224 H 80 c -26.5,0 -48,21.5 -48,48 v 96 c 0,26.5 21.5,48 48,48 h 48 l 134.09961,119.19922 c 6.4,5.7 14.59961,8.80078 23.09961,8.80078 C 304.39922,544 320,528.39922 320,509.19922 V 130.80078 C 320,111.60078 304.39922,96 285.19922,96 Z m 229.45508,11.96875 c 0.10347,0.24804 0.20818,0.49473 0.3164,0.74023 0.0139,0.0315 0.0647,0.10071 0.082,0.11524 l 0.002,0.002 0.002,0.002 h 0.002 v -0.002 -0.002 -0.002 l -0.002,-0.002 v -0.002 c -0.0944,-0.24028 -0.19329,-0.48031 -0.32031,-0.70508 -0.0271,-0.048 -0.054,-0.0971 -0.082,-0.14453 z m 23.15039,0.40234 c -0.0204,0.0139 -0.17979,0.16847 -0.24219,0.22461 -0.14261,0.1456 -0.28513,0.28996 -0.42773,0.43555 0.23091,-0.19703 0.4511,-0.4108 0.6582,-0.64453 l 0.0117,-0.0117 h 0.002 v -0.002 -0.002 z m -80.01758,57.23633 c -6.91809,0.0569 -13.76133,3.09883 -18.48633,8.89258 -8.4,10.3 -6.8,25.40078 3.5,33.80078 C 475.30078,234.70078 496,274.9 496,320 c 0,45.1 -20.69922,85.30078 -53.19922,111.80078 -10.3,8.4 -11.8,23.49883 -3.5,33.79883 8.3,10.3 23.49883,11.8 33.79883,3.5 43.2,-35.2 70.90039,-88.9 70.90039,-149 0,-60.1 -27.70039,-113.8 -70.90039,-149 V 171 c -4.50625,-3.675 -9.93176,-5.43684 -15.3125,-5.39258 z m -60.5,74.5 c -6.91809,0.0569 -13.76133,3.09883 -18.48633,8.89258 -8.4,10.3 -6.8,25.40078 3.5,33.80078 C 393.10078,291.60078 400,305 400,320 c 0,15 -6.89922,28.40078 -17.69922,37.30078 -10.3,8.4 -11.8,23.49883 -3.5,33.79883 8.3,10.3 23.49883,11.8 33.79883,3.5 C 434.09961,376.89961 448,350.1 448,320 c 0,-30.1 -13.90039,-56.9 -35.40039,-74.5 -4.50625,-3.675 -9.93176,-5.43684 -15.3125,-5.39258 z m 192.95703,109.10156 c -0.0617,0.50901 -0.12461,1.01738 -0.18945,1.5254 0.13104,-0.092 0.2614,-0.18355 0.39258,-0.2754 -0.068,-0.41655 -0.13544,-0.83339 -0.20313,-1.25 z" />
</svg>
